<svg xmlns="http://www.w3.org/2000/svg" xmlns:xlink="http://www.w3.org/1999/xlink" width="70" height="70"><defs><path id="a" d="M4 0h61c4 0 5 1 5 5v60c0 4-1 5-5 5H4c-3 0-4-1-4-5V5c0-4 1-5 4-5z"/><linearGradient id="c" x1="100%" x2="0%" y1="0%" y2="98.616%"><stop offset="0%" stop-color="#797C79"/><stop offset="100%" stop-color="#545554"/></linearGradient></defs><g fill="none" fill-rule="evenodd"><mask id="b" fill="#fff"><use xlink:href="#a"/></mask><g mask="url(#b)"><path fill="url(#c)" d="M0 0H70V70H0z"/><path fill="#FFF" fill-opacity=".383" d="M4 1h61c2.667 0 4.333.667 5 2V0H0v3c.667-1.333 2-2 4-2z"/><path fill="#393939" d="M4 69c-2 0-4-.143-4-4V40.04l30.66-25.52 8.03 2.418-2.72 4.497 4.448.828 6.073 5.558-.613 3.743 1.346-2.066.622 1.131 6.406 20.945L43.5 69H4z" opacity=".324"/><path fill="#000" fill-opacity=".383" d="M4 69h61c2.667 0 4.333-1 5-3v4H0v-4c.667 2 2 3 4 3z"/><g transform="translate(16 14)"><path d="M0 0H39V45H0z"/><path fill="#000" fill-opacity=".3" d="M17.085 9.435l1.443 1.453 1.442-1.453h2.13c.07 0 .14.007.209.017 2.77.217 6.614 3.988 7.753 5.167.528.547.57 1.395.12 1.99l-.098.115-5.499 5.95a1.505 1.505 0 0 1-.814.457l-.152.022 1.564 19.295a2.356 2.356 0 0 1-2.147 2.544 2.348 2.348 0 0 1-2.509-2l-.018-.16L19.1 25.443h-1.328l-1.408 17.389a2.35 2.35 0 0 1-2.528 2.16 2.354 2.354 0 0 1-2.153-2.383l.007-.161 1.563-19.295a1.504 1.504 0 0 1-.848-.365l-.117-.114-5.5-5.95a1.535 1.535 0 0 1 .023-2.105c1.138-1.18 4.982-4.95 7.753-5.167l.103-.012.106-.005h2.312zm1.388 21.854c.498 8.369.75 12.576.757 12.622-.49.066-.321.073-.66.073h-.255c-.342 0-.104-.006-.6-.073.007-.046.26-4.253.758-12.622zM5.563 17.175c0 .726.2 1.077.543 1.559 3.565 3.637 5.392 5.65 5.481 6.035l.004.027-2.633 18.44a3.914 3.914 0 0 0-.006.233C1.187 42.388 0 40.463 0 40.463l.004-.025c.121-.691 2.788-15.817 5.56-23.263zm25.65.264c3.7 5.804 6.043 15.771 7.171 20.448.283 1.17-.016 2.127-1.072 2.51-1.855.675-4.17 1.797-10.563 2.478l-.001-.115-.006-.116L24.96 24.44l5.509-5.633c.444-.476.814-.766.744-1.368zm-17.769-4.203c-.878.548-1.95 1.39-2.955 2.296l-.332.304 3.287 3.557v-6.157zm10.194 0v6.156l3.287-3.557c-1.098-1.02-2.312-1.99-3.287-2.6zM12.54 14.917v2.212l-.975-1.142.975-1.07zm11.877-.093l1.098 1.15-1.098 1.153v-2.303zM18.436 0c2.35 0 4.255 1.95 4.255 4.355 0 2.405-1.905 4.355-4.255 4.355-2.35 0-4.254-1.95-4.254-4.355C14.182 1.95 16.087 0 18.436 0z"/></g><g transform="translate(16 12)"><path d="M0 0H39V45H0z"/><path fill="#FFF" d="M17.085 9.435l1.443 1.453 1.442-1.453h2.13c.07 0 .14.007.209.017 2.77.217 6.614 3.988 7.753 5.167.528.547.57 1.395.12 1.99l-.098.115-5.499 5.95a1.505 1.505 0 0 1-.814.457l-.152.022 1.564 19.295a2.356 2.356 0 0 1-2.147 2.544 2.348 2.348 0 0 1-2.509-2l-.018-.16L19.1 25.443h-1.328l-1.408 17.389a2.35 2.35 0 0 1-2.528 2.16 2.354 2.354 0 0 1-2.153-2.383l.007-.161 1.563-19.295a1.504 1.504 0 0 1-.848-.365l-.117-.114-5.5-5.95a1.535 1.535 0 0 1 .023-2.105c1.138-1.18 4.982-4.95 7.753-5.167l.103-.012.106-.005h2.312zm1.388 21.854c.498 8.369.75 12.576.757 12.622-.49.066-.321.073-.66.073h-.255c-.342 0-.104-.006-.6-.073.007-.046.26-4.253.758-12.622zM5.563 17.175c0 .726.2 1.077.543 1.559 3.565 3.637 5.392 5.65 5.481 6.035l.004.027-2.633 18.44a3.914 3.914 0 0 0-.006.233C1.187 42.388 0 40.463 0 40.463l.004-.025c.121-.691 2.788-15.817 5.56-23.263zm25.65.264c3.7 5.804 6.043 15.771 7.171 20.448.283 1.17-.016 2.127-1.072 2.51-1.855.675-4.17 1.797-10.563 2.478l-.001-.115-.006-.116L24.96 24.44l5.509-5.633c.444-.476.814-.766.744-1.368zm-17.769-4.203c-.878.548-1.95 1.39-2.955 2.296l-.332.304 3.287 3.557v-6.157zm10.194 0v6.156l3.287-3.557c-1.098-1.02-2.312-1.99-3.287-2.6zM12.54 14.917v2.212l-.975-1.142.975-1.07zm11.877-.093l1.098 1.15-1.098 1.153v-2.303zM18.436 0c2.35 0 4.255 1.95 4.255 4.355 0 2.405-1.905 4.355-4.255 4.355-2.35 0-4.254-1.95-4.254-4.355C14.182 1.95 16.087 0 18.436 0z"/></g></g></g></svg>