<svg xmlns="http://www.w3.org/2000/svg" xmlns:xlink="http://www.w3.org/1999/xlink" width="70" height="70" viewBox="0 0 70 70"><defs><path id="a" d="M4 0h61c4 0 5 1 5 5v60c0 4-1 5-5 5H4c-3 0-4-1-4-5V5c0-4 1-5 4-5z"/><linearGradient id="c" x1="100%" x2="0%" y1="0%" y2="98.616%"><stop offset="0%" stop-color="#797C79"/><stop offset="100%" stop-color="#545554"/></linearGradient></defs><g fill="none" fill-rule="evenodd"><mask id="b" fill="#fff"><use xlink:href="#a"/></mask><g mask="url(#b)"><path fill="url(#c)" d="M0 0H70V70H0z"/><path fill="#FFF" fill-opacity=".383" d="M4 1h61c2.667 0 4.333.667 5 2V0H0v3c.667-1.333 2-2 4-2z"/><path fill="#393939" d="M40.784 69H4c-2 0-4-1-4-4V42.679l23.52-22.01 33 31.81L40.785 69z" opacity=".324"/><path fill="#000" fill-opacity=".383" d="M4 69h61c2.667 0 4.333-1 5-3v4H0v-4c.667 2 2 3 4 3z"/><path fill="#FFF" d="M38.932 34.242L29.78 25.09l3.05-3.051v-3.05c1.017-1.434 2.289-2.914 3.814-4.44 1.477-.984 2.78-1.746 3.907-2.287-2.096-.6-4.268-.168-6.516 1.298-1.312 1.076-2.984 2.377-5.018 3.903h-2.288l-7.627 7.627c.508 2.542-.509 3.56-3.051 3.05L13 31.193l5.339 6.101a36.898 36.898 0 0 0 3.05-3.05c-.508-2.543.51-3.814 3.052-3.814l2.288-2.288 9.152 8.39-.381 1.445c3.305 0 6.213 1.224 8.724 3.673 2.512 2.45 3.158 5.696 1.939 9.74l4.21 4.21h3.05L58 51.021v-3.05L42.746 33.48h-2.288l-1.526.762zm3.412 15.397l1.338.772c.153.088.224.27.171.44a7.772 7.772 0 0 1-1.716 2.968.377.377 0 0 1-.466.07l-1.337-.771a6.014 6.014 0 0 1-1.907 1.103v1.543c0 .177-.122.33-.294.368a7.846 7.846 0 0 1-3.428 0 .377.377 0 0 1-.296-.368v-1.543a6.013 6.013 0 0 1-1.907-1.103l-1.336.772a.377.377 0 0 1-.466-.07 7.773 7.773 0 0 1-1.717-2.97.377.377 0 0 1 .172-.439l1.337-.772a6.073 6.073 0 0 1 0-2.204l-1.337-.772a.377.377 0 0 1-.172-.439 7.772 7.772 0 0 1 1.717-2.969.377.377 0 0 1 .466-.07l1.336.772a6.014 6.014 0 0 1 1.907-1.103V41.31c0-.176.123-.33.295-.368a7.846 7.846 0 0 1 3.428 0 .377.377 0 0 1 .295.368v1.544c.699.247 1.345.62 1.907 1.103l1.337-.772a.377.377 0 0 1 .466.07c.776.84 1.369 1.85 1.716 2.97a.377.377 0 0 1-.17.438l-1.339.772a6.073 6.073 0 0 1 0 2.204zm-3.414-1.102a2.514 2.514 0 0 0-2.512-2.511 2.514 2.514 0 0 0-2.51 2.511 2.514 2.514 0 0 0 2.51 2.511 2.514 2.514 0 0 0 2.512-2.51z"/></g></g></svg>