<svg xmlns="http://www.w3.org/2000/svg" xmlns:xlink="http://www.w3.org/1999/xlink" width="70" height="70" viewBox="0 0 70 70"><defs><path id="a" d="M4 0h61c4 0 5 1 5 5v60c0 4-1 5-5 5H4c-3 0-4-1-4-5V5c0-4 1-5 4-5z"/><linearGradient id="c" x1="100%" x2="0%" y1="0%" y2="100%"><stop offset="0%" stop-color="#7CC098"/><stop offset="100%" stop-color="#5F8A71"/></linearGradient><path id="d" d="M54.137 19.803l-7.617-1.758a1.758 1.758 0 0 0-2.01 1.02l-3.516 8.203a1.758 1.758 0 0 0 .502 2.053l4.44 3.633a27.167 27.167 0 0 1-12.982 12.982l-3.633-4.44a1.758 1.758 0 0 0-2.053-.502l-8.202 3.515a1.758 1.758 0 0 0-1.02 2.011l1.757 7.617a1.758 1.758 0 0 0 1.713 1.363C40.272 55.5 55.5 40.3 55.5 21.516c0-.819-.565-1.53-1.363-1.713z"/><path id="e" d="M54.137 17.803l-7.617-1.758a1.758 1.758 0 0 0-2.01 1.02l-3.516 8.203a1.758 1.758 0 0 0 .502 2.053l4.44 3.633a27.167 27.167 0 0 1-12.982 12.982l-3.633-4.44a1.758 1.758 0 0 0-2.053-.502l-8.202 3.515a1.758 1.758 0 0 0-1.02 2.011l1.757 7.617a1.758 1.758 0 0 0 1.713 1.363C40.272 53.5 55.5 38.3 55.5 19.516c0-.819-.565-1.53-1.363-1.713z"/></defs><g fill="none" fill-rule="evenodd"><mask id="b" fill="#fff"><use xlink:href="#a"/></mask><g mask="url(#b)"><path fill="url(#c)" d="M0 0H70V70H0z"/><path fill="#FFF" fill-opacity=".383" d="M4 1h61c2.667 0 4.333.667 5 2V0H0v3c.667-1.333 2-2 4-2z"/><path fill="#393939" d="M40.019 69H4c-2 0-4-1-4-4V38.566L18.256 18.61 34 45l19.18 7.867L40.019 69z" opacity=".324"/><path fill="#000" fill-opacity=".383" d="M4 69h61c2.667 0 4.333-1 5-3v4H0v-4c.667 2 2 3 4 3z"/><use fill="#000" fill-rule="nonzero" opacity=".3" transform="matrix(-1 0 0 1 73.5 0)" xlink:href="#d"/><use fill="#FFF" fill-rule="nonzero" transform="matrix(-1 0 0 1 73.5 0)" xlink:href="#e"/></g></g></svg>