<svg xmlns="http://www.w3.org/2000/svg" xmlns:xlink="http://www.w3.org/1999/xlink" width="70" height="70" viewBox="0 0 70 70">
    <defs>
        <path id="icon-a" d="M4,5.35309892e-14 C36.4160122,9.87060235e-15 58.0836068,-3.97961823e-14 65,5.07020818e-14 C69,6.733808e-14 70,1 70,5 C70,43.0488877 70,62.4235458 70,65 C70,69 69,70 65,70 C61,70 9,70 4,70 C1,70 7.10542736e-15,69 7.10542736e-15,65 C7.25721566e-15,62.4676575 3.83358709e-14,41.8005206 3.60818146e-14,5 C-1.13686838e-13,1 1,5.75716207e-14 4,5.35309892e-14 Z"/>
        <linearGradient id="icon-c" x1="100%" x2="0%" y1="0%" y2="100%">
            <stop offset="0%" stop-color="#94B6C8"/>
            <stop offset="100%" stop-color="#6A9EBA"/>
        </linearGradient>
        <path id="icon-d" d="M45.6794109,24.3439057 C44.3411895,25.6665828 43.1147191,26.8852809 42,28 C40.7277587,30.2264223 40.163654,32.1493575 40.2111587,33.6401026 L33.071231,40.7800005 L29.7134962,37.4222957 C29.4140424,37.1228119 28.9284821,37.1228119 28.6290283,37.4222957 L27.5445904,38.5067636 C27.2451365,38.8062473 27.2451365,39.2917777 27.5445904,39.5912315 L32.5289971,44.5756382 C32.8284509,44.875122 33.3139812,44.875122 33.613465,44.5756682 L41.7001422,36.4889635 C43.0271238,37.2804671 45.1916506,37.2035783 48,36 C48.962584,35.037416 50.1270687,33.8851679 51.493454,32.5432558 C51.9701629,33.1788273 51.9755197,34.1368917 51.3159174,34.7613191 L48.0975661,37.9110797 L51.3158474,41.0607704 C52.274809,41.9686405 51.828362,43.5828885 50.5695062,43.8839721 L46.184822,45.0030627 L47.420862,49.3433006 C47.7700971,50.5914471 46.593266,51.7693967 45.3449783,51.4198821 L41.0062055,50.1834234 L39.8875336,54.5695727 C39.5839301,55.840115 37.9401459,56.2601764 37.0653087,55.316193 L33.9166645,52.0967254 L30.7678803,55.316193 C29.8840147,56.2505182 28.2563275,55.8695795 27.9456553,54.5695727 L26.8269835,50.1834234 L22.4882107,51.4198821 C21.2402029,51.7692567 20.0630219,50.591727 20.4123269,49.3433006 L21.6483669,45.0030627 L17.2636827,43.8839721 C16.0053168,43.5830284 15.55796,41.9689904 16.5173415,41.0607704 L19.7356928,37.9110797 L16.5173415,34.7613191 C15.5583799,33.8535189 16.0048269,32.239201 17.2637527,31.9381873 L21.6484369,30.8190967 L20.4123969,26.4788588 C20.0631618,25.2307124 21.2399229,24.0527628 22.4882807,24.4022774 L26.8271234,25.638736 L27.9457953,21.2525867 C28.2451996,19.9996811 29.8840847,19.5715713 30.7680202,20.5059664 L33.9166645,23.7492296 L37.0653786,20.5058964 C37.9594623,19.5607933 39.5915587,20.0138185 39.8876036,21.2525167 L41.0062755,25.638666 L45.3450482,24.4022074 C45.4574311,24.3707463 45.5692397,24.3516668 45.6794109,24.3439057 Z M61.4482932,20.5472597 L59.6475119,22.3478488 C59.4639182,22.531423 59.1670432,22.531423 58.9834494,22.3478488 L54.6475119,18.0123739 C54.4639182,17.8287997 54.4639182,17.5319564 54.6475119,17.3483823 L56.4482932,15.5477931 C57.1787619,14.8174023 58.3662619,14.8174023 59.1006369,15.5477931 L61.4482932,17.8951989 C62.1826682,18.6255897 62.1826682,19.812963 61.4482932,20.5472597 Z M53.1006369,18.8950922 L42.8428244,29.1518104 L42.0146994,33.8973978 C41.9014182,34.5379545 42.4600119,35.0925828 43.1006369,34.9832195 L47.8467307,34.151277 L58.1045432,23.8945588 C58.2881369,23.7109846 58.2881369,23.4141413 58.1045432,23.2305672 L53.7686057,18.8950922 C53.5811057,18.7115181 53.2842307,18.7115181 53.1006369,18.8950922 Z M46.8467307,28.2729979 C46.6318869,28.0581771 46.6318869,27.7144637 46.8467307,27.4996429 L52.8623557,21.4846597 C53.0771994,21.2698389 53.4209494,21.2698389 53.6357932,21.4846597 C53.8506369,21.6994805 53.8506369,22.0431938 53.6357932,22.2580147 L47.6201682,28.2729979 C47.4053244,28.4878187 47.0615744,28.4878187 46.8467307,28.2729979 Z M45.4365744,31.5578037 L47.3115744,31.5578037 L47.3115744,32.9756212 L44.7920432,33.4169803 L43.5771994,32.2022662 L44.0186057,29.6830037 L45.4365744,29.6830037 L45.4365744,31.5578037 Z"/>
        <path id="icon-e" d="M45.6794109,22.3439057 C44.3411895,23.6665828 43.1147191,24.8852809 42,26 C40.7277587,28.2264223 40.163654,30.1493575 40.2111587,31.6401026 L33.071231,38.7800005 L29.7134962,35.4222957 C29.4140424,35.1228119 28.9284821,35.1228119 28.6290283,35.4222957 L27.5445904,36.5067636 C27.2451365,36.8062473 27.2451365,37.2917777 27.5445904,37.5912315 L32.5289971,42.5756382 C32.8284509,42.875122 33.3139812,42.875122 33.613465,42.5756682 L41.7001422,34.4889635 C43.0271238,35.2804671 45.1916506,35.2035783 48,34 C48.962584,33.037416 50.1270687,31.8851679 51.493454,30.5432558 C51.9701629,31.1788273 51.9755197,32.1368917 51.3159174,32.7613191 L48.0975661,35.9110797 L51.3158474,39.0607704 C52.274809,39.9686405 51.828362,41.5828885 50.5695062,41.8839721 L46.184822,43.0030627 L47.420862,47.3433006 C47.7700971,48.5914471 46.593266,49.7693967 45.3449783,49.4198821 L41.0062055,48.1834234 L39.8875336,52.5695727 C39.5839301,53.840115 37.9401459,54.2601764 37.0653087,53.316193 L33.9166645,50.0967254 L30.7678803,53.316193 C29.8840147,54.2505182 28.2563275,53.8695795 27.9456553,52.5695727 L26.8269835,48.1834234 L22.4882107,49.4198821 C21.2402029,49.7692567 20.0630219,48.591727 20.4123269,47.3433006 L21.6483669,43.0030627 L17.2636827,41.8839721 C16.0053168,41.5830284 15.55796,39.9689904 16.5173415,39.0607704 L19.7356928,35.9110797 L16.5173415,32.7613191 C15.5583799,31.8535189 16.0048269,30.239201 17.2637527,29.9381873 L21.6484369,28.8190967 L20.4123969,24.4788588 C20.0631618,23.2307124 21.2399229,22.0527628 22.4882807,22.4022774 L26.8271234,23.638736 L27.9457953,19.2525867 C28.2451996,17.9996811 29.8840847,17.5715713 30.7680202,18.5059664 L33.9166645,21.7492296 L37.0653786,18.5058964 C37.9594623,17.5607933 39.5915587,18.0138185 39.8876036,19.2525167 L41.0062755,23.638666 L45.3450482,22.4022074 C45.4574311,22.3707463 45.5692397,22.3516668 45.6794109,22.3439057 Z M61.4482932,18.5472597 L59.6475119,20.3478488 C59.4639182,20.531423 59.1670432,20.531423 58.9834494,20.3478488 L54.6475119,16.0123739 C54.4639182,15.8287997 54.4639182,15.5319564 54.6475119,15.3483823 L56.4482932,13.5477931 C57.1787619,12.8174023 58.3662619,12.8174023 59.1006369,13.5477931 L61.4482932,15.8951989 C62.1826682,16.6255897 62.1826682,17.812963 61.4482932,18.5472597 Z M53.1006369,16.8950922 L42.8428244,27.1518104 L42.0146994,31.8973978 C41.9014182,32.5379545 42.4600119,33.0925828 43.1006369,32.9832195 L47.8467307,32.151277 L58.1045432,21.8945588 C58.2881369,21.7109846 58.2881369,21.4141413 58.1045432,21.2305672 L53.7686057,16.8950922 C53.5811057,16.7115181 53.2842307,16.7115181 53.1006369,16.8950922 Z M46.8467307,26.2729979 C46.6318869,26.0581771 46.6318869,25.7144637 46.8467307,25.4996429 L52.8623557,19.4846597 C53.0771994,19.2698389 53.4209494,19.2698389 53.6357932,19.4846597 C53.8506369,19.6994805 53.8506369,20.0431938 53.6357932,20.2580147 L47.6201682,26.2729979 C47.4053244,26.4878187 47.0615744,26.4878187 46.8467307,26.2729979 Z M45.4365744,29.5578037 L47.3115744,29.5578037 L47.3115744,30.9756212 L44.7920432,31.4169803 L43.5771994,30.2022662 L44.0186057,27.6830037 L45.4365744,27.6830037 L45.4365744,29.5578037 Z"/>
    </defs>
    <g fill="none" fill-rule="evenodd">
        <mask id="icon-b" fill="#fff">
            <use xlink:href="#icon-a"/>
        </mask>
        <g mask="url(#icon-b)">
            <rect width="70" height="70" fill="url(#icon-c)"/>
            <path fill="#FFF" fill-opacity=".383" d="M4,1.8 L65,1.8 C67.6666667,1.8 69.3333333,1.13333333 70,-0.2 C70,2.46666667 70,3.46666667 70,2.8 L1.10547097e-14,2.8 C-1.65952376e-14,3.46666667 -2.9161925e-14,2.46666667 -2.66453526e-14,-0.2 C0.666666667,1.13333333 2,1.8 4,1.8 Z" transform="matrix(1 0 0 -1 0 2.8)"/>
            <path fill="#393939" d="M28.4624488,54 L4,54 C2,54 1.96071906e-16,53 1.96071906e-16,50 L0,28.0937151 L20.806605,8 L22.9517932,8.99242728 L28.0934678,3.98087149 L31.0774429,8 L37.6018385,3.21298275 L43.4336945,11.5917084 L54.6294475,0.438020759 L59.6395143,5.35875041 L49.7157211,15.2142622 L51,16 L51.6169934,17.3420878 L47.1293368,21.4404905 L51.2906224,26.4270294 L47.1293368,33.7501474 L28.4624488,54 Z" opacity=".324" transform="translate(0 15)"/>
            <path fill="#000" fill-opacity=".383" d="M4,4 L65,4 C67.6666667,4 69.3333333,3 70,1 C70,3.66666667 70,5 70,5 L1.77635684e-15,5 C1.77635684e-15,5 1.77635684e-15,3.66666667 1.77635684e-15,1 C0.666666667,3 2,4 4,4 Z" transform="translate(0 65)"/>
            <use fill="#000" fill-rule="nonzero" opacity=".3" xlink:href="#icon-d"/>
            <use fill="#FFF" fill-rule="nonzero" xlink:href="#icon-e"/>
        </g>
    </g>
</svg>
