<svg xmlns="http://www.w3.org/2000/svg" xmlns:xlink="http://www.w3.org/1999/xlink" width="70" height="70" viewBox="0 0 70 70"><defs><path id="a" d="M4 0h61c4 0 5 1 5 5v60c0 4-1 5-5 5H4c-3 0-4-1-4-5V5c0-4 1-5 4-5z"/><linearGradient id="c" x1="100%" x2="0%" y1="0%" y2="100%"><stop offset="0%" stop-color="#94B6C8"/><stop offset="100%" stop-color="#6A9EBA"/></linearGradient><path id="d" d="M52.51 39.245l3.951 2.28c.451.26.66.8.506 1.297a22.955 22.955 0 0 1-5.07 8.768c-.353.383-.924.47-1.375.21l-3.948-2.28a17.76 17.76 0 0 1-5.632 3.256v4.56c0 .52-.361.971-.87 1.085-3.24.728-6.72.766-10.125.001a1.115 1.115 0 0 1-.871-1.087v-4.56a17.758 17.758 0 0 1-5.633-3.256l-3.948 2.28c-.45.26-1.021.174-1.375-.209a22.956 22.956 0 0 1-5.07-8.768 1.115 1.115 0 0 1 .507-1.297l3.95-2.28a17.936 17.936 0 0 1 0-6.508l-3.95-2.28a1.115 1.115 0 0 1-.506-1.297 22.955 22.955 0 0 1 5.07-8.769c.353-.382.924-.469 1.374-.208l3.948 2.28a17.76 17.76 0 0 1 5.633-3.257v-4.56c0-.52.36-.972.87-1.086a23.173 23.173 0 0 1 10.124 0c.51.114.872.565.872 1.086v4.56a17.758 17.758 0 0 1 5.633 3.257l3.947-2.28a1.114 1.114 0 0 1 1.375.208 22.956 22.956 0 0 1 5.07 8.769 1.115 1.115 0 0 1-.506 1.296l-3.95 2.28a17.937 17.937 0 0 1 0 6.509zm-9.817-4.597c-.67.515-1.556 1.172-4.607 3.363-.608.438-1.694 1.417-2.762 1.408-1.062.006-2.127-.952-2.758-1.408-3.051-2.191-3.94-2.845-4.61-3.36a.18.18 0 0 0-.29.14v6.045c0 .784.643 1.42 1.436 1.42h12.445c.793 0 1.436-.636 1.436-1.42v-6.049a.18.18 0 0 0-.29-.139zm-7.369 3.822c.694.012 1.694-.864 2.196-1.225 3.97-2.848 4.272-3.097 5.188-3.807a.705.705 0 0 0 .275-.559v-.562c0-.783-.643-1.42-1.436-1.42H29.102c-.793 0-1.436.637-1.436 1.42v.562a.71.71 0 0 0 .275.56c.916.706 1.218.958 5.188 3.806.502.361 1.501 1.237 2.195 1.225z"/><path id="e" d="M52.51 37.245l3.951 2.28c.451.26.66.8.506 1.297a22.955 22.955 0 0 1-5.07 8.768c-.353.383-.924.47-1.375.21l-3.948-2.28a17.76 17.76 0 0 1-5.632 3.256v4.56c0 .52-.361.971-.87 1.085-3.24.728-6.72.766-10.125.001a1.115 1.115 0 0 1-.871-1.087v-4.56a17.758 17.758 0 0 1-5.633-3.256l-3.948 2.28c-.45.26-1.021.174-1.375-.209a22.956 22.956 0 0 1-5.07-8.768 1.115 1.115 0 0 1 .507-1.297l3.95-2.28a17.936 17.936 0 0 1 0-6.508l-3.95-2.28a1.115 1.115 0 0 1-.506-1.297 22.955 22.955 0 0 1 5.07-8.769c.353-.382.924-.469 1.374-.208l3.948 2.28a17.76 17.76 0 0 1 5.633-3.257v-4.56c0-.52.36-.972.87-1.086a23.173 23.173 0 0 1 10.124 0c.51.114.872.565.872 1.086v4.56a17.758 17.758 0 0 1 5.633 3.257l3.947-2.28a1.114 1.114 0 0 1 1.375.208 22.956 22.956 0 0 1 5.07 8.769 1.115 1.115 0 0 1-.506 1.296l-3.95 2.28a17.937 17.937 0 0 1 0 6.509zm-9.817-4.597c-.67.515-1.556 1.172-4.607 3.363-.608.438-1.694 1.417-2.762 1.408-1.062.006-2.127-.952-2.758-1.408-3.051-2.191-3.94-2.845-4.61-3.36a.18.18 0 0 0-.29.14v6.045c0 .784.643 1.42 1.436 1.42h12.445c.793 0 1.436-.636 1.436-1.42v-6.049a.18.18 0 0 0-.29-.139zm-7.369 3.822c.694.012 1.694-.864 2.196-1.225 3.97-2.848 4.272-3.097 5.188-3.807a.705.705 0 0 0 .275-.559v-.562c0-.783-.643-1.42-1.436-1.42H29.102c-.793 0-1.436.637-1.436 1.42v.562a.71.71 0 0 0 .275.56c.916.706 1.218.958 5.188 3.806.502.361 1.501 1.237 2.195 1.225z"/></defs><g fill="none" fill-rule="evenodd"><mask id="b" fill="#fff"><use xlink:href="#a"/></mask><g mask="url(#b)"><path fill="url(#c)" d="M0 0H70V70H0z"/><path fill="#FFF" fill-opacity=".383" d="M4 1h61c2.667 0 4.333.667 5 2V0H0v3c.667-1.333 2-2 4-2z"/><path fill="#393939" d="M34.128 69H4c-2 0-4-1-4-4V35.206l18.332-16.862 2.386 2.006 8.552-8.445L39 18l12 19 6 4-5.067 8.515L34.128 69z" opacity=".324"/><path fill="#000" fill-opacity=".383" d="M4 69h61c2.667 0 4.333-1 5-3v4H0v-4c.667 2 2 3 4 3z"/><use fill="#000" fill-rule="nonzero" opacity=".3" xlink:href="#d"/><use fill="#FFF" fill-rule="nonzero" xlink:href="#e"/></g></g></svg>