<svg xmlns="http://www.w3.org/2000/svg" xmlns:xlink="http://www.w3.org/1999/xlink" width="70" height="70"><defs><path id="a" d="M4 0h61c4 0 5 1 5 5v60c0 4-1 5-5 5H4c-3 0-4-1-4-5V5c0-4 1-5 4-5z"/><linearGradient id="c" x1="100%" x2="0%" y1="0%" y2="100%"><stop offset="0%" stop-color="#7CC098"/><stop offset="100%" stop-color="#5F8A71"/></linearGradient></defs><g fill="none" fill-rule="evenodd"><mask id="b" fill="#fff"><use xlink:href="#a"/></mask><g mask="url(#b)"><path fill="url(#c)" d="M0 0H70V70H0z"/><path fill="#FFF" fill-opacity=".383" d="M4 1h61c2.667 0 4.333.667 5 2V0H0v3c.667-1.333 2-2 4-2z"/><path fill="#000" fill-opacity=".383" d="M4 69h61c2.667 0 4.333-1 5-3v4H0v-4c.667 2 2 3 4 3z"/><path fill="#393939" d="M42.881 69H4c-2 0-4-1-4-4V36.86L15.5 20.5 28 17l7 2.5 6.76-1.888L52.5 20l8 10v12.5L42.881 69z" opacity=".324"/><path fill="#000" fill-rule="nonzero" d="M44 37c0 5.85-2.79 11.048-7.114 14.336A15.926 15.926 0 0 0 44 53c8.837 0 16-7.163 16-16s-7.163-16-16-16c-2.507 0-4.927.576-7.114 1.664C41.21 25.952 44 31.15 44 37zm-18 0c0-5.85 2.79-11.048 7.114-14.336A15.926 15.926 0 0 0 26 21c-8.837 0-16 7.163-16 16s7.163 16 16 16c2.507 0 4.927-.576 7.114-1.664C28.79 48.048 26 42.85 26 37zm18-18c9.941 0 18 8.059 18 18s-8.059 18-18 18c-3.279 0-6.352-.877-9-2.408A17.917 17.917 0 0 1 26 55c-9.941 0-18-8.059-18-18s8.059-18 18-18c3.279 0 6.352.877 9 2.408A17.917 17.917 0 0 1 44 19z" opacity=".3"/><path fill="#FFF" fill-rule="nonzero" d="M44 35c0 5.85-2.79 11.048-7.114 14.336A15.926 15.926 0 0 0 44 51c8.837 0 16-7.163 16-16s-7.163-16-16-16c-2.507 0-4.927.576-7.114 1.664C41.21 23.952 44 29.15 44 35zm-18 0c0-5.85 2.79-11.048 7.114-14.336A15.926 15.926 0 0 0 26 19c-8.837 0-16 7.163-16 16s7.163 16 16 16c2.507 0 4.927-.576 7.114-1.664C28.79 46.048 26 40.85 26 35zm18-18c9.941 0 18 8.059 18 18s-8.059 18-18 18c-3.279 0-6.352-.877-9-2.408A17.917 17.917 0 0 1 26 53c-9.941 0-18-8.059-18-18s8.059-18 18-18c3.279 0 6.352.877 9 2.408A17.917 17.917 0 0 1 44 17z"/></g></g></svg>