<svg xmlns="http://www.w3.org/2000/svg" xmlns:xlink="http://www.w3.org/1999/xlink" width="70" height="70"><defs><path id="a" d="M4 0h61c4 0 5 1 5 5v60c0 4-1 5-5 5H4c-3 0-4-1-4-5V5c0-4 1-5 4-5z"/><linearGradient id="c" x1="98.162%" x2="0%" y1="1.838%" y2="100%"><stop offset="0%" stop-color="#797DA5"/><stop offset="50.799%" stop-color="#6D7194"/><stop offset="100%" stop-color="#626584"/></linearGradient></defs><g fill="none" fill-rule="evenodd"><mask id="b" fill="#fff"><use xlink:href="#a"/></mask><g mask="url(#b)"><path fill="url(#c)" d="M0 0H70V70H0z"/><path fill="#FFF" fill-opacity=".383" d="M4 1h61c2.667 0 4.333.667 5 2V0H0v3c.667-1.333 2-2 4-2z"/><path fill="#393939" d="M4 69c-2 0-4-1-4-4V36.285L18 14h28v15.96l3.608-3.433L56.775 29 43.03 45.984 46 54 31.248 69H4z" opacity=".324"/><path fill="#000" fill-opacity=".383" d="M4 69h61c2.667 0 4.333-1 5-3v4H0v-4c.667 2 2 3 4 3z"/><path fill="#000" d="M46 28.917l-3 2.75V19H21v35h22v-6l3-3v11H18V16h28v12.917zM24 47h15v2H24v-2zm32.448-15.453l-1.8 1.8a.47.47 0 0 1-.665 0l-4.335-4.335a.47.47 0 0 1 0-.664l1.8-1.8a1.88 1.88 0 0 1 2.653 0l2.347 2.347c.735.73.735 1.918 0 2.652zm-8.347-1.652a.474.474 0 0 1 .668 0l4.336 4.336a.47.47 0 0 1 0 .664L42.847 45.15l-4.746.832a.939.939 0 0 1-1.086-1.086l.828-4.745L48.1 29.895zm-6.254 9.378a.545.545 0 0 0 .773 0l6.016-6.015a.545.545 0 0 0 0-.773.545.545 0 0 0-.774 0L41.847 38.5a.545.545 0 0 0 0 .773zm-1.41 3.285v-1.875h-1.418l-.442 2.52 1.215 1.214 2.52-.441v-1.418h-1.875zm-4.897-14.56l1.258 1.23c.375.355.2.986-.292 1.103l-1.713.438.483 1.695a.662.662 0 0 1-.811.812l-1.695-.483-.437 1.713c-.119.497-.761.66-1.103.292L30 33.54l-1.23 1.258c-.346.365-.981.216-1.103-.292l-.437-1.713-1.695.483a.662.662 0 0 1-.811-.812l.483-1.695-1.713-.438a.651.651 0 0 1-.292-1.103l1.258-1.23-1.258-1.23a.651.651 0 0 1 .292-1.104l1.713-.437-.483-1.696a.662.662 0 0 1 .811-.811l1.695.483.437-1.714c.117-.49.757-.656 1.103-.291L30 22.465l1.23-1.267c.35-.37.987-.193 1.103.291l.437 1.714 1.695-.483a.662.662 0 0 1 .811.811l-.483 1.696 1.713.437a.651.651 0 0 1 .292 1.103l-1.258 1.23zm-8.446.513l2.085 2.084a.32.32 0 0 0 .453 0l3.689-3.688a.32.32 0 0 0 0-.454L32.867 26a.32.32 0 0 0-.453 0l-3.008 3.008L28 27.604a.32.32 0 0 0-.453 0l-.454.453a.32.32 0 0 0 0 .454z" opacity=".3"/><path fill="#FFF" d="M46 26.917l-3 2.75V17H21v35h22v-6l3-3v11H18V14h28v12.917zM24 45h15v2H24v-2zm32.448-15.453l-1.8 1.8a.47.47 0 0 1-.665 0l-4.335-4.335a.47.47 0 0 1 0-.664l1.8-1.8a1.88 1.88 0 0 1 2.653 0l2.347 2.347c.735.73.735 1.918 0 2.652zm-8.347-1.652a.474.474 0 0 1 .668 0l4.336 4.336a.47.47 0 0 1 0 .664L42.847 43.15l-4.746.832a.939.939 0 0 1-1.086-1.086l.828-4.745L48.1 27.895zm-6.254 9.378a.545.545 0 0 0 .773 0l6.016-6.015a.545.545 0 0 0 0-.773.545.545 0 0 0-.774 0L41.847 36.5a.545.545 0 0 0 0 .773zm-1.41 3.285v-1.875h-1.418l-.442 2.52 1.215 1.214 2.52-.441v-1.418h-1.875zm-4.897-14.56l1.258 1.23c.375.355.2.986-.292 1.103l-1.713.438.483 1.695a.662.662 0 0 1-.811.812l-1.695-.483-.437 1.713c-.119.497-.761.66-1.103.292L30 31.54l-1.23 1.258c-.346.365-.981.216-1.103-.292l-.437-1.713-1.695.483a.662.662 0 0 1-.811-.812l.483-1.695-1.713-.438a.651.651 0 0 1-.292-1.103l1.258-1.23-1.258-1.23a.651.651 0 0 1 .292-1.104l1.713-.437-.483-1.696a.662.662 0 0 1 .811-.811l1.695.483.437-1.714c.117-.49.757-.656 1.103-.291L30 20.465l1.23-1.267c.35-.37.987-.193 1.103.291l.437 1.714 1.695-.483a.662.662 0 0 1 .811.811l-.483 1.696 1.713.437a.651.651 0 0 1 .292 1.103l-1.258 1.23zm-8.446.513l2.085 2.084a.32.32 0 0 0 .453 0l3.689-3.688a.32.32 0 0 0 0-.454L32.867 24a.32.32 0 0 0-.453 0l-3.008 3.008L28 25.604a.32.32 0 0 0-.453 0l-.454.453a.32.32 0 0 0 0 .454z"/></g></g></svg>