<svg xmlns="http://www.w3.org/2000/svg" xmlns:xlink="http://www.w3.org/1999/xlink" viewBox="0 0 70 70" width="70" height="70"><defs><style>.a,.f,.j{fill:#fff;}.a,.e,.f,.g,.h{fill-rule:evenodd;}.b,.g{isolation:isolate;}.c{mask:url(#a);}.d{fill:url(#b);}.e{fill:url(#c);}.f,.h{fill-opacity:0.38;}.g{fill:#393939;opacity:0.32;}.i{opacity:0.4;mix-blend-mode:multiply;}</style><mask id="a" x="0" y="-0.2" width="70" height="70.2" maskUnits="userSpaceOnUse"><path class="a" d="M4,0H65c4,0,5,1,5,5V65c0,4-1,5-5,5H4c-3,0-4-1-4-5V5C0,1,1,0,4,0Z"/></mask><linearGradient id="b" x1="-636.76" y1="415.03" x2="-637.76" y2="414.03" gradientTransform="matrix(70, 0, 0, -70, 44643, 29052)" gradientUnits="userSpaceOnUse"><stop offset="0" stop-color="#9ec789"/><stop offset="1" stop-color="#78af5e"/></linearGradient><linearGradient id="c" x1="-636.76" y1="415.03" x2="-637.76" y2="414.03" gradientTransform="matrix(70, 0, 0, -70, 44643, 29052)" gradientUnits="userSpaceOnUse"><stop offset="0" stop-color="#7cc098"/><stop offset="1" stop-color="#5f8a71"/></linearGradient></defs><title>approval</title><g class="b"><g class="c"><rect class="d" width="70" height="70"/><path class="e" d="M0,0H70V70H0Z"/><path class="f" d="M4,1H65c2.67,0,4.33.67,5,2V0H0V3C.67,1.67,2,1,4,1Z"/><path class="g" d="M38,70H4c-2,0-4-.15-4-4.16V41.32L20,18l16,9.36-5.33,7L32,34l-3.52,3.27V44l4.89-6.41,9.16,9.18L55.84,31.69l1.5,1.06Z"/><path class="h" d="M4,69H65c2.67,0,4.33-1,5-3v4H0V66A3.92,3.92,0,0,0,4,69Z"/><path class="i" d="M27.28,16.23a9.55,9.55,0,1,1-9.41,9.55A9.48,9.48,0,0,1,27.28,16.23ZM32,36c0-.41-7.88,1.57-11.3-.92l-4.19,1.06a5.71,5.71,0,0,0-4.28,5.55V43.9a2.85,2.85,0,0,0,2.82,2.87H30.52C28.67,40.42,32,36.41,32,36Z"/><path class="j" d="M27.28,14.23a9.55,9.55,0,1,1-9.41,9.55A9.48,9.48,0,0,1,27.28,14.23ZM32,34c0-.41-7.88,1.57-11.3-.92l-4.19,1.06a5.71,5.71,0,0,0-4.28,5.55V41.9a2.85,2.85,0,0,0,2.82,2.87H30.52C28.67,38.42,32,34.41,32,34Z"/></g><path class="i" d="M41.38,50.45l-8-8.76a1.45,1.45,0,0,1,0-1.91l1.75-1.91a1.18,1.18,0,0,1,1.65-.1l.1.1,5.41,5.91L53.84,31.13a1.17,1.17,0,0,1,1.65-.1l.1.1L57.34,33a1.43,1.43,0,0,1,0,1.9L43.13,50.45a1.18,1.18,0,0,1-1.65.11Z"/><path class="j" d="M41.38,48.26l-8-8.77a1.43,1.43,0,0,1,0-1.9l1.75-1.91a1.17,1.17,0,0,1,1.65-.1l.1.1,5.41,5.91L53.84,28.94a1.17,1.17,0,0,1,1.65-.11l.1.11,1.75,1.9a1.45,1.45,0,0,1,0,1.91L43.13,48.26a1.17,1.17,0,0,1-1.65.1A.47.47,0,0,1,41.38,48.26Z"/></g></svg>