<svg xmlns="http://www.w3.org/2000/svg" xmlns:xlink="http://www.w3.org/1999/xlink" width="70" height="70" viewBox="0 0 70 70"><defs><path id="a" d="M4 0h61c4 0 5 1 5 5v60c0 4-1 5-5 5H4c-3 0-4-1-4-5V5c0-4 1-5 4-5z"/><linearGradient id="c" x1="100%" x2="0%" y1="0%" y2="100%"><stop offset="0%" stop-color="#CDC484"/><stop offset="100%" stop-color="#B5AA59"/></linearGradient></defs><g fill="none" fill-rule="evenodd"><mask id="b" fill="#fff"><use xlink:href="#a"/></mask><g mask="url(#b)"><path fill="url(#c)" d="M0 0H70V70H0z"/><path fill="#FFF" fill-opacity=".383" d="M4 1h61c2.667 0 4.333.667 5 2V0H0v3c.667-1.333 2-2 4-2z"/><path fill="#393939" d="M4 69c-2 0-4-1-4-4V33.665l14.375-13.727L25.651 7.303l1.374 2.91L44 12l5.695 2.194L61 28l-2.536 7.326 6.414 4.542-5.842 5.8-1.97 3.36-2.306 2.78L38.036 69H4z" opacity=".324"/><path fill="#000" fill-opacity=".383" d="M4 69h61c2.667 0 4.333-1 5-3v4H0v-4c.667 2 2 3 4 3z"/><path fill="#000" d="M26.385 8l-5.9 8.058 9.51 3.036-1.28-3.953a22.208 22.208 0 0 1 7.2-1.203c11.135 0 20.316 8.182 21.904 18.866l3.228-2.94c-2.799-11.282-12.995-19.668-25.132-19.668a25.8 25.8 0 0 0-8.365 1.394L26.385 8zm-8.44 9.452C13.046 22.167 10 28.769 10 36.088c0 7.763 3.434 14.745 8.861 19.496l-2.54 2.807 9.93 1.07-2.12-9.739-2.768 3.074a22.075 22.075 0 0 1-7.6-16.708 22.073 22.073 0 0 1 8.326-17.319l-2.922-.935-1.223-.382zM60.97 32.766L65 41.912l-3.686-.783C58.964 53.012 48.48 62 35.914 62c-2.486 0-4.902-.355-7.18-1.012l-.916-4.258a22.175 22.175 0 0 0 8.097 1.508c10.8 0 19.754-7.681 21.733-17.891l-4.068-.879 7.39-6.702zm-26.52.21c0 2.561 7.818 1.911 7.818 6.781 0 2.333-1.712 4.325-4.493 4.741v1.93c0 .27-.227.489-.508.489h-1.692a.498.498 0 0 1-.508-.489v-1.962c-1.672-.273-3.161-1.015-4.18-1.952a.475.475 0 0 1-.054-.644l1.286-1.655a.522.522 0 0 1 .726-.087c1.054.814 2.416 1.46 3.717 1.46 1.516 0 2.206-.868 2.206-1.675 0-2.384-7.819-1.867-7.819-6.893 0-2.145 1.637-3.88 4.118-4.42v-2.028c0-.27.227-.489.508-.489h1.692c.28 0 .508.219.508.489v1.922c1.36.151 2.836.664 3.863 1.538.177.15.221.398.11.597l-.997 1.772a.52.52 0 0 1-.744.164c-.946-.654-2.105-1.153-3.236-1.153-1.41 0-2.321.614-2.321 1.563z" opacity=".3"/><path fill="#FFF" d="M26.385 6l-5.9 8.058 9.51 3.036-1.28-3.953a22.208 22.208 0 0 1 7.2-1.203c11.135 0 20.316 8.182 21.904 18.866l3.228-2.94C58.248 16.582 48.052 8.196 35.915 8.196A25.8 25.8 0 0 0 27.55 9.59L26.385 6zm-8.44 9.452C13.046 20.167 10 26.769 10 34.088c0 7.763 3.434 14.745 8.861 19.496l-2.54 2.807 9.93 1.07-2.12-9.739-2.768 3.074a22.075 22.075 0 0 1-7.6-16.708 22.073 22.073 0 0 1 8.326-17.319l-2.922-.935-1.223-.382zM60.97 30.766L65 39.912l-3.686-.783C58.964 51.012 48.48 60 35.914 60c-2.486 0-4.902-.355-7.18-1.012l-.916-4.258a22.175 22.175 0 0 0 8.097 1.508c10.8 0 19.754-7.681 21.733-17.891l-4.068-.879 7.39-6.702zm-26.52.21c0 2.561 7.818 1.911 7.818 6.781 0 2.333-1.712 4.325-4.493 4.741v1.93c0 .27-.227.489-.508.489h-1.692a.498.498 0 0 1-.508-.489v-1.962c-1.672-.273-3.161-1.015-4.18-1.952a.475.475 0 0 1-.054-.644l1.286-1.655a.522.522 0 0 1 .726-.087c1.054.814 2.416 1.46 3.717 1.46 1.516 0 2.206-.868 2.206-1.675 0-2.384-7.819-1.867-7.819-6.893 0-2.145 1.637-3.88 4.118-4.42v-2.028c0-.27.227-.489.508-.489h1.692c.28 0 .508.219.508.489v1.922c1.36.151 2.836.664 3.863 1.538.177.15.221.398.11.597l-.997 1.772a.52.52 0 0 1-.744.164c-.946-.654-2.105-1.153-3.236-1.153-1.41 0-2.321.614-2.321 1.563z"/></g></g></svg>