<svg xmlns="http://www.w3.org/2000/svg" xmlns:xlink="http://www.w3.org/1999/xlink" width="70" height="70"><defs><path id="a" d="M4 0h61c4 0 5 1 5 5v60c0 4-1 5-5 5H4c-3 0-4-1-4-5V5c0-4 1-5 4-5z"/><linearGradient id="c" x1="100%" x2="0%" y1="0%" y2="100%"><stop offset="0%" stop-color="#269396"/><stop offset="100%" stop-color="#218689"/></linearGradient></defs><g fill="none" fill-rule="evenodd"><mask id="b" fill="#fff"><use xlink:href="#a"/></mask><g mask="url(#b)"><g><path fill="url(#c)" d="M0 0H70V70H0z"/><path fill="#FFF" fill-opacity=".383" d="M4 1h61c2.667 0 4.333.667 5 2V0H0v3c.667-1.333 2-2 4-2z"/></g><path fill="#000" fill-opacity=".383" d="M4 69h61c2.667 0 4.333-1 5-3v4H0v-4c.667 2 2 3 4 3z"/><path fill="#393939" d="M3.935 69c-1.3 0-4-.4-4-3.5L0 27.1l13.33-9.8 36.4 5.9L40 28.7l5.6.1 11.8 4.4-3.825 7.42 3.025 9.807L44.235 69h-40.3z" opacity=".32"/><g fill="#000" fill-rule="nonzero" opacity=".3"><path d="M48.1 40.6c-5.3 0-9.6 4.3-9.6 9.7 0 5.4 4.3 9.7 9.6 9.7s9.6-4.3 9.6-9.7c0-5.4-4.3-9.7-9.6-9.7zm2 10.8c0 .1-.1.3-.2.4l-3.4 2.5c-.2.2-.5.1-.7-.1l-1.1-1.5c-.2-.2-.1-.5.1-.7l2.5-1.8v-5.4c0-.3.2-.5.5-.5h1.9c.3 0 .5.2.5.5v6.6h-.1zm-.7-25.5H14c-.6 0-1.2-.5-1.2-1.2v-3.8c0-.6.5-1.2 1.2-1.2h35.4c.6 0 1.2.5 1.2 1.2v3.8c-.1.6-.6 1.2-1.2 1.2zm6.8 11.2H20.8c-.6 0-1.2-.5-1.2-1.2v-3.8c0-.6.5-1.2 1.2-1.2h35.4c.6 0 1.2.5 1.2 1.2v3.8c-.1.7-.6 1.2-1.2 1.2zM35.473 47.3c0-1.9.41-3.6 1.227-5.1H15.518c-.49 0-.818.5-.818 1v4.1c0 .6.409 1 .818 1h20.037c-.082-.4-.082-.7-.082-1z"/><path d="M42.5 43.2v-1.3l-26.8 1.3c-.6 0-1 .5-1 1v4.1c0 .6.5 1 1 1h24.5c0-2.4.9-4.5 2.3-6.1z"/></g><path fill="#FFF" fill-rule="nonzero" d="M49.4 23.2H14c-.6 0-1.2-.5-1.2-1.2v-3.8c0-.6.5-1.2 1.2-1.2h35.4c.6 0 1.2.5 1.2 1.2V22c-.1.7-.6 1.2-1.2 1.2zm6.8 11.2H20.8c-.6 0-1.2-.5-1.2-1.2v-3.8c0-.6.5-1.2 1.2-1.2h35.4c.6 0 1.2.5 1.2 1.2v3.8c-.1.7-.6 1.2-1.2 1.2zm-18.5 6.1H15.527c-.496 0-.827.5-.827 1v4.1c0 .6.414 1 .827 1h20.27c0-2.3.745-4.5 1.903-6.1zm10.4-3.3c-5.3 0-9.6 4.3-9.6 9.7 0 5.4 4.3 9.7 9.6 9.7s9.6-4.3 9.6-9.7c0-5.4-4.3-9.7-9.6-9.7zm2 10.8c0 .1-.1.3-.2.4l-3.4 2.5c-.2.2-.5.1-.7-.1l-1.1-1.5c-.2-.2-.1-.5.1-.7l2.5-1.8v-5.4c0-.3.2-.5.5-.5h1.9c.3 0 .5.2.5.5V48h-.1z"/></g></g></svg>