<svg xmlns="http://www.w3.org/2000/svg" xmlns:xlink="http://www.w3.org/1999/xlink" width="70" height="70" viewBox="0 0 70 70"><defs><path id="a" d="M4 0h61c4 0 5 1 5 5v60c0 4-1 5-5 5H4c-3 0-4-1-4-5V5c0-4 1-5 4-5z"/><linearGradient id="c" x1="100%" x2="0%" y1="0%" y2="100%"><stop offset="0%" stop-color="#7CC098"/><stop offset="100%" stop-color="#5F8A71"/></linearGradient></defs><g fill="none" fill-rule="evenodd"><mask id="b" fill="#fff"><use xlink:href="#a"/></mask><g mask="url(#b)"><path fill="url(#c)" d="M0 0H70V70H0z"/><path fill="#FFF" fill-opacity=".383" d="M4 1h61c2.667 0 4.333.667 5 2V0H0v3c.667-1.333 2-2 4-2z"/><path fill="#393939" d="M42.127 69H4c-2 0-4-1-4-4V35l15.895-17.19C25.228 8.478 38 6.334 50 15c8.415 6.077 12.076 13.466 10.984 22.165-.035.285-.1.714-.194 1.29a24.755 24.755 0 0 1-.304 1.352C60.099 41.274 58.936 44.338 57 49L42.127 69z" opacity=".324"/><path fill="#000" fill-opacity=".383" d="M4 69h61c2.667 0 4.333-1 5-3v4H0v-4c.667 2 2 3 4 3z"/><path fill="#000" d="M35.722 27L47 30.846v10.385L38.056 47 26 41.23V30.847L35.722 27zm-.381 1L28 31.111 38.045 35 45 31.5 35.34 28zM27 32v8.944L38 46v-9.722L27 32zm-.615-24l-5.9 8.058 9.51 3.036-1.28-3.953a22.208 22.208 0 0 1 7.2-1.203c11.135 0 20.316 8.182 21.904 18.866l3.228-2.94c-2.799-11.282-12.995-19.668-25.132-19.668a25.8 25.8 0 0 0-8.365 1.394L26.385 8zm-8.44 9.452C13.046 22.167 10 28.769 10 36.088c0 7.763 3.434 14.745 8.861 19.496l-2.54 2.807 9.93 1.07-2.12-9.739-2.768 3.074a22.075 22.075 0 0 1-7.6-16.708 22.073 22.073 0 0 1 8.326-17.319l-2.922-.935-1.223-.382zM60.97 32.766l-7.39 6.702 4.068.879c-1.98 10.21-10.933 17.891-21.733 17.891-2.858 0-5.591-.528-8.097-1.508l.916 4.258A25.918 25.918 0 0 0 35.914 62c12.565 0 23.05-8.988 25.4-20.87l3.686.782-4.03-9.146z" opacity=".3"/><path fill="#FFF" d="M35.722 25L47 28.846v10.385L38.056 45 26 39.23V28.847L35.722 25zm-.381 1L28 29.111 38.045 33 45 29.5 35.34 26zM27 30v8.944L38 44v-9.722L27 30zm-.615-24l-5.9 8.058 9.51 3.036-1.28-3.953a22.208 22.208 0 0 1 7.2-1.203c11.135 0 20.316 8.182 21.904 18.866l3.228-2.94C58.248 16.582 48.052 8.196 35.915 8.196A25.8 25.8 0 0 0 27.55 9.59L26.385 6zm-8.44 9.452C13.046 20.167 10 26.769 10 34.088c0 7.763 3.434 14.745 8.861 19.496l-2.54 2.807 9.93 1.07-2.12-9.739-2.768 3.074a22.075 22.075 0 0 1-7.6-16.708 22.073 22.073 0 0 1 8.326-17.319l-2.922-.935-1.223-.382zM60.97 30.766l-7.39 6.702 4.068.879c-1.98 10.21-10.933 17.891-21.733 17.891-2.858 0-5.591-.528-8.097-1.508l.916 4.258A25.918 25.918 0 0 0 35.914 60c12.565 0 23.05-8.988 25.4-20.87l3.686.782-4.03-9.146z"/></g></g></svg>