<svg xmlns="http://www.w3.org/2000/svg" xmlns:xlink="http://www.w3.org/1999/xlink" width="70" height="70"><defs><path id="a" d="M4 0h61c4 0 5 1 5 5v60c0 4-1 5-5 5H4c-3 0-4-1-4-5V5c0-4 1-5 4-5z"/><linearGradient id="c" x1="98.162%" x2="0%" y1="1.838%" y2="100%"><stop offset="0%" stop-color="#797DA5"/><stop offset="50.799%" stop-color="#6D7194"/><stop offset="100%" stop-color="#626584"/></linearGradient></defs><g fill="none" fill-rule="evenodd"><mask id="b" fill="#fff"><use xlink:href="#a"/></mask><g mask="url(#b)"><path fill="url(#c)" d="M0 0H70V70H0z"/><path fill="#FFF" fill-opacity=".383" d="M4 1h61c2.667 0 4.333.667 5 2V0H0v3c.667-1.333 2-2 4-2z"/><path fill="#393939" d="M53.83 70H3.977C1.988 70 0 69.852 0 65.857V48.138L11 18c1.824-3.4 3.367-5 4.951-5L58 14.96v37.173c0 5.425-1.39 11.38-4.17 17.867z" opacity=".324"/><path fill="#000" fill-opacity=".383" d="M4 69h61c2.667 0 4.333-1 5-3v4H0v-4c.667 2 2 3 4 3z"/><g transform="translate(13 13)"><path fill="#000" d="M0 38.915h45v2a3 3 0 0 1-3 3H3a3 3 0 0 1-3-3v-2z" opacity=".3"/><path fill="#FFF" d="M0 0H45V42H0z"/><path fill="#5B5D75" d="M23 29v7h-1v-7h-8v7h-1v-7H4v-1h27v-7H4v-1h9v-7H4v-1h9V5h1v7h8V5h1v7h8V5h1v7h8v1H14v7h26v1h-8v7h8v1h-8v7h-1v-7h-8z" opacity=".79"/><path fill="#3F4152" d="M40 5H5v31h35V5zm1 0v31a1 1 0 0 1-1 1H5a1 1 0 0 1-1-1V5a1 1 0 0 1 1-1h35a1 1 0 0 1 1 1zm-23.5 9H39v5H17.5a2.5 2.5 0 1 1 0-5zM5 22h22.5a2.5 2.5 0 1 1 0 5H5v-5z"/></g></g></g></svg>