<svg xmlns="http://www.w3.org/2000/svg" xmlns:xlink="http://www.w3.org/1999/xlink" width="70" height="70" viewBox="0 0 70 70"><defs><path id="a" d="M4 0h61c4 0 5 1 5 5v60c0 4-1 5-5 5H4c-3 0-4-1-4-5V5c0-4 1-5 4-5z"/><linearGradient id="c" x1="98.162%" x2="0%" y1="1.838%" y2="100%"><stop offset="0%" stop-color="#797DA5"/><stop offset="50.799%" stop-color="#6D7194"/><stop offset="100%" stop-color="#626584"/></linearGradient><path id="d" d="M28.295 42.211l-.72-.7a.74.74 0 0 1 0-1.07l6.305-6.133a.791.791 0 0 1 1.1 0l6.306 6.13a.74.74 0 0 1 0 1.07l-.72.7a.795.795 0 0 1-1.114-.012l-3.722-3.8v9.069c0 .42-.347.757-.779.757h-1.038a.766.766 0 0 1-.78-.757v-9.068l-3.725 3.802a.79.79 0 0 1-1.113.012zm18.986-9.932a3.5 3.5 0 1 1 0-7 3.5 3.5 0 0 1 0 7zm.707 28.992a3.5 3.5 0 1 1 0-7 3.5 3.5 0 0 1 0 7zM18.29 31.572a3.5 3.5 0 1 1 0-7 3.5 3.5 0 0 1 0 7zm14.85-3.535a3.5 3.5 0 1 1 0-7 3.5 3.5 0 0 1 0 7zM52.23 45.714a3.5 3.5 0 1 1 0-7 3.5 3.5 0 0 1 0 7z"/><path id="e" d="M28.295 40.211l-.72-.7a.74.74 0 0 1 0-1.07l6.305-6.133a.791.791 0 0 1 1.1 0l6.306 6.13a.74.74 0 0 1 0 1.07l-.72.7a.795.795 0 0 1-1.114-.012l-3.722-3.8v9.069c0 .42-.347.757-.779.757h-1.038a.766.766 0 0 1-.78-.757v-9.068l-3.725 3.802a.79.79 0 0 1-1.113.012zm18.986-9.932a3.5 3.5 0 1 1 0-7 3.5 3.5 0 0 1 0 7zm.707 28.992a3.5 3.5 0 1 1 0-7 3.5 3.5 0 0 1 0 7zM18.29 29.572a3.5 3.5 0 1 1 0-7 3.5 3.5 0 0 1 0 7zm14.85-3.535a3.5 3.5 0 1 1 0-7 3.5 3.5 0 0 1 0 7zM52.23 43.714a3.5 3.5 0 1 1 0-7 3.5 3.5 0 0 1 0 7z"/></defs><g fill="none" fill-rule="evenodd"><mask id="b" fill="#fff"><use xlink:href="#a"/></mask><g mask="url(#b)"><path fill="url(#c)" d="M0 0H70V70H0z"/><path fill="#FFF" fill-opacity=".383" d="M4 1h61c2.667 0 4.333.667 5 2V0H0v3c.667-1.333 2-2 4-2z"/><path fill="#393939" d="M29.625 69l23.058-28.052 6.088 3.041L38.673 69h-9.048zM4 69c-2 0-4-1-4-4V46.03L19 27l3.03 2.945L32 20l4.95 4.76L30 35h9l6-8 5.86 2.945-11.022 13.182.336 1.068L18.694 69H4z" opacity=".324"/><path fill="#000" fill-opacity=".383" d="M4 69h61c2.667 0 4.333-1 5-3v4H0v-4c.667 2 2 3 4 3z"/><use fill="#000" fill-rule="nonzero" opacity=".3" transform="rotate(-45 35.26 41.154)" xlink:href="#d"/><use fill="#FFF" fill-rule="nonzero" transform="rotate(-45 35.26 39.154)" xlink:href="#e"/></g></g></svg>