<svg xmlns="http://www.w3.org/2000/svg" xmlns:xlink="http://www.w3.org/1999/xlink" width="70" height="70" viewBox="0 0 70 70"><defs><path id="a" d="M4 0h61c4 0 5 1 5 5v60c0 4-1 5-5 5H4c-3 0-4-1-4-5V5c0-4 1-5 4-5z"/><linearGradient id="c" x1="98.162%" x2="0%" y1="1.838%" y2="100%"><stop offset="0%" stop-color="#797DA5"/><stop offset="50.799%" stop-color="#6D7194"/><stop offset="100%" stop-color="#626584"/></linearGradient><path id="d" d="M36.233 53.562c-3.732 0-7.248-.756-10.336-2.091a20.132 20.132 0 0 1-10.994 4.899.761.761 0 0 1-.089.005c-.37 0-.706-.28-.796-.678-.097-.443.208-.716.51-1.04 1.49-1.616 3.297-2.886 4.003-8.312C15.69 43.275 14 39.442 14 35.281 14 25.184 23.955 17 36.233 17c12.279 0 22.234 8.184 22.234 18.281 0 10.105-9.955 18.281-22.234 18.281zm-.096-28.523c-6.192 0-10.928 4.554-10.928 10.552 0 4.796 3.116 8.9 7.567 10.344.57.1.772-.242.772-.523 0-.269-.014-1.748-.014-2.656 0 0-3.124.649-3.78-1.288 0 0-.51-1.259-1.241-1.583 0 0-1.023-.679.07-.666 0 0 1.112.086 1.724 1.116.978 1.669 2.616 1.189 3.254.903.103-.691.393-1.171.714-1.457-2.495-.268-5.013-.618-5.013-4.778 0-1.19.34-1.786 1.054-2.547-.116-.282-.496-1.44.116-2.937.933-.28 3.08 1.168 3.08 1.168a10.805 10.805 0 0 1 2.803-.368c.951 0 1.911.126 2.804.368 0 0 2.147-1.453 3.08-1.168.611 1.5.232 2.655.116 2.937.714.765 1.152 1.362 1.152 2.547 0 4.173-2.63 4.506-5.125 4.778.41.342.759.99.759 2.007 0 1.457-.013 3.26-.013 3.615 0 .28.205.623.772.523 4.464-1.436 7.49-5.54 7.49-10.335 0-5.998-5.022-10.552-11.213-10.552z"/><path id="e" d="M36.233 51.562c-3.732 0-7.248-.756-10.336-2.091a20.132 20.132 0 0 1-10.994 4.899.761.761 0 0 1-.089.005c-.37 0-.706-.28-.796-.678-.097-.443.208-.716.51-1.04 1.49-1.616 3.297-2.886 4.003-8.312C15.69 41.275 14 37.442 14 33.281 14 23.184 23.955 15 36.233 15c12.279 0 22.234 8.184 22.234 18.281 0 10.105-9.955 18.281-22.234 18.281zm-.096-28.523c-6.192 0-10.928 4.554-10.928 10.552 0 4.796 3.116 8.9 7.567 10.344.57.1.772-.242.772-.523 0-.269-.014-1.748-.014-2.656 0 0-3.124.649-3.78-1.288 0 0-.51-1.259-1.241-1.583 0 0-1.023-.679.07-.666 0 0 1.112.086 1.724 1.116.978 1.669 2.616 1.189 3.254.903.103-.691.393-1.171.714-1.457-2.495-.268-5.013-.618-5.013-4.778 0-1.19.34-1.786 1.054-2.547-.116-.282-.496-1.44.116-2.937.933-.28 3.08 1.168 3.08 1.168a10.805 10.805 0 0 1 2.803-.368c.951 0 1.911.126 2.804.368 0 0 2.147-1.453 3.08-1.168.611 1.5.232 2.655.116 2.937.714.765 1.152 1.362 1.152 2.547 0 4.173-2.63 4.506-5.125 4.778.41.342.759.99.759 2.007 0 1.457-.013 3.26-.013 3.615 0 .28.205.623.772.523 4.464-1.436 7.49-5.54 7.49-10.335 0-5.998-5.022-10.552-11.213-10.552z"/></defs><g fill="none" fill-rule="evenodd"><mask id="b" fill="#fff"><use xlink:href="#a"/></mask><g mask="url(#b)"><path fill="url(#c)" d="M0 0H70V70H0z"/><path fill="#FFF" fill-opacity=".383" d="M4 1h61c2.667 0 4.333.667 5 2V0H0v3c.667-1.333 2-2 4-2z"/><path fill="#393939" d="M31.137 69H4c-2 0-4-1-4-4V41.17l18.484-19.087h26.342l7.518 23.74L31.137 69z" opacity=".324"/><path fill="#000" fill-opacity=".383" d="M4 69h61c2.667 0 4.333-1 5-3v4H0v-4c.667 2 2 3 4 3z"/><use fill="#000" fill-rule="nonzero" opacity=".3" xlink:href="#d"/><use fill="#FFF" fill-rule="nonzero" xlink:href="#e"/></g></g></svg>