<svg xmlns="http://www.w3.org/2000/svg" xmlns:xlink="http://www.w3.org/1999/xlink" width="70" height="70"><defs><path id="a" d="M4 0h61c4 0 5 1 5 5v60c0 4-1 5-5 5H4c-3 0-4-1-4-5V5c0-4 1-5 4-5z"/><linearGradient id="c" x1="100%" x2="0%" y1="0%" y2="100%"><stop offset="0%" stop-color="#B06161"/><stop offset="45.785%" stop-color="#984E4E"/><stop offset="100%" stop-color="#7C3838"/></linearGradient><path id="d" d="M22 53.442v.058c0 .694-.292 1.285-.875 1.77-.583.487-1.292.73-2.125.73H9c-.833 0-1.542-.243-2.125-.73C6.292 54.786 6 54.195 6 53.5v-5c0-.694.292-1.285.875-1.77C7.458 46.242 8.167 46 9 46h5.943c1.736 3 4.16 5.553 7.057 7.442zM12.57 40H9c-.833 0-1.542-.243-2.125-.73C6.292 38.786 6 38.195 6 37.5v-5c0-.694.292-1.285.875-1.77C7.458 30.242 8.167 30 9 30h3.57a22.066 22.066 0 0 0-.57 5c0 1.72.197 3.394.57 5zM22 16.558A22.112 22.112 0 0 0 14.943 24H9c-.833 0-1.542-.243-2.125-.73C6.292 22.786 6 22.195 6 21.5v-5c0-.694.292-1.285.875-1.77C7.458 14.242 8.167 14 9 14h10c.833 0 1.542.243 2.125.73.583.485.875 1.076.875 1.77v.058zm24 36.884A22.112 22.112 0 0 0 53.057 46H59c.833 0 1.542.243 2.125.73.583.485.875 1.076.875 1.77v5c0 .694-.292 1.285-.875 1.77-.583.487-1.292.73-2.125.73H49c-.833 0-1.542-.243-2.125-.73-.583-.485-.875-1.076-.875-1.77v-.058zM55.43 40c.373-1.606.57-3.28.57-5 0-1.72-.197-3.394-.57-5H59c.833 0 1.542.243 2.125.73.583.485.875 1.076.875 1.77v5c0 .694-.292 1.285-.875 1.77-.583.487-1.292.73-2.125.73h-3.57zm-2.373-16c-1.736-3-4.16-5.553-7.057-7.442V16.5c0-.694.292-1.285.875-1.77.583-.487 1.292-.73 2.125-.73h10c.833 0 1.542.243 2.125.73.583.485.875 1.076.875 1.77v5c0 .694-.292 1.285-.875 1.77-.583.487-1.292.73-2.125.73h-5.943z"/></defs><g fill="none" fill-rule="evenodd"><mask id="b" fill="#fff"><use xlink:href="#a"/></mask><g mask="url(#b)"><path fill="url(#c)" d="M0 0H70V70H0z"/><path fill="#FFF" fill-opacity=".383" d="M4 1h61c2.667 0 4.333.667 5 2V0H0v3c.667-1.333 2-2 4-2z"/><path fill="#393939" d="M4 70c-2 0-4-.148-4-4.14V24.954L7 15l12.376-.798H49L62 16.5 61.5 55 37.72 70H4z" opacity=".324"/><path fill="#000" fill-opacity=".383" d="M4 69h61c2.667 0 4.333-1 5-3v4H0v-4c.667 2 2 3 4 3z"/><use fill="#FFF" fill-rule="nonzero" xlink:href="#d"/><path fill="#FFF" d="M36 30.563v7.875a.537.537 0 0 1-.164.404.58.58 0 0 1-.42.158h-5.833a.58.58 0 0 1-.419-.158.537.537 0 0 1-.164-.404v-1.126c0-.164.055-.298.164-.404a.58.58 0 0 1 .42-.158h4.083v-6.188c0-.164.054-.298.164-.404A.58.58 0 0 1 34.25 30h1.167c.17 0 .31.053.419.158.11.106.164.24.164.404zm7 5.937c0-1.723-.425-3.312-1.275-4.767a9.47 9.47 0 0 0-3.458-3.458C36.812 27.425 35.223 27 33.5 27c-1.723 0-3.312.425-4.767 1.275a9.47 9.47 0 0 0-3.458 3.458C24.425 33.188 24 34.777 24 36.5c0 1.723.425 3.312 1.275 4.767a9.47 9.47 0 0 0 3.458 3.458C30.188 45.575 31.777 46 33.5 46c1.723 0 3.312-.425 4.767-1.275a9.47 9.47 0 0 0 3.458-3.458C42.575 39.812 43 38.223 43 36.5zm.838-8.703l1.725-1.285a1 1 0 0 1 1.393.196l.795 1.043a1 1 0 0 1-.198 1.409l-1.905 1.418C46.55 32.41 47 34.384 47 36.5c0 2.45-.604 4.708-1.81 6.776a13.44 13.44 0 0 1-4.914 4.913C38.208 49.396 35.95 50 33.5 50c-2.45 0-4.708-.604-6.776-1.81a13.44 13.44 0 0 1-4.913-4.914C20.604 41.208 20 38.95 20 36.5c0-2.45.604-4.708 1.81-6.776a13.44 13.44 0 0 1 4.914-4.913A13.083 13.083 0 0 1 32 23.078V22h-1a1 1 0 0 1-1-1v-1a1 1 0 0 1 1-1h6a1 1 0 0 1 1 1v1a1 1 0 0 1-1 1h-1v1.221a13.08 13.08 0 0 1 4.276 1.59c1.379.804 2.566 1.8 3.562 2.986z"/></g></g></svg>