<svg xmlns="http://www.w3.org/2000/svg" xmlns:xlink="http://www.w3.org/1999/xlink" width="70" height="70"><defs><path id="a" d="M4 0h61c4 0 5 1 5 5v60c0 4-1 5-5 5H4c-3 0-4-1-4-5V5c0-4 1-5 4-5z"/><linearGradient id="c" x1="100%" x2="0%" y1="0%" y2="100%"><stop offset="0%" stop-color="#B06161"/><stop offset="45.785%" stop-color="#984E4E"/><stop offset="100%" stop-color="#7C3838"/></linearGradient></defs><g fill="none" fill-rule="evenodd"><mask id="b" fill="#fff"><use xlink:href="#a"/></mask><g mask="url(#b)"><path fill="url(#c)" d="M0 0H70V70H0z"/><path fill="#FFF" fill-opacity=".383" d="M4 1h61c2.667 0 4.333.667 5 2V0H0v3c.667-1.333 2-2 4-2z"/><path fill="#393939" d="M4 69c-2 0-4-1-4-4V44.714L16 31l18.807-5.848-2.96 4.809-12.164 12.517H29l18.579-21.261L58 18l-5.261 9.115-7.455 8.825L12.165 69H4z" opacity=".324"/><path fill="#000" fill-opacity=".383" d="M4 69h61c2.667 0 4.333-1 5-3v4H0v-4c.667 2 2 3 4 3z"/><path fill="#000" fill-rule="nonzero" d="M20.95 31.41L35 27c-2.073 4.692-6.901 9.494-10.788 10.719-3.886 1.212-5.347-1.605-3.262-6.31zm26.592-8.232L58 20c-6.18 13.63-20.667 27.594-32.33 31.166-11.698 3.571-16.082-4.655-9.808-18.345l4.053-1.238c-4.112 8.964-1.229 14.345 6.428 12.012 7.646-2.322 17.134-11.476 21.2-20.417zm-2.734 25.33h-1.284v-.792h3.51v.792H45.75V52h-.942v-3.492zm2.718-.792h1.326l1.002 2.946h.012l.948-2.946h1.326V52h-.882v-3.036h-.012L50.196 52h-.726l-1.05-3.006h-.012V52h-.882v-4.284z" opacity=".3"/><path fill="#FFF" fill-rule="nonzero" d="M20.95 29.41L35 25c-2.073 4.692-6.901 9.494-10.788 10.719-3.886 1.212-5.347-1.605-3.262-6.31zm26.592-8.232L58 18c-6.18 13.63-20.667 27.594-32.33 31.166-11.698 3.571-16.082-4.655-9.808-18.345l4.053-1.238c-4.112 8.964-1.229 14.345 6.428 12.012 7.646-2.322 17.134-11.476 21.2-20.417zm-2.734 25.33h-1.284v-.792h3.51v.792H45.75V50h-.942v-3.492zm2.718-.792h1.326l1.002 2.946h.012l.948-2.946h1.326V50h-.882v-3.036h-.012L50.196 50h-.726l-1.05-3.006h-.012V50h-.882v-4.284z"/></g></g></svg>