<svg xmlns="http://www.w3.org/2000/svg" xmlns:xlink="http://www.w3.org/1999/xlink" width="70" height="70"><defs><path id="a" d="M4 0h61c4 0 5 1 5 5v60c0 4-1 5-5 5H4c-3 0-4-1-4-5V5c0-4 1-5 4-5z"/><linearGradient id="c" x1="100%" x2="0%" y1="0%" y2="100%"><stop offset="0%" stop-color="#CD7690"/><stop offset="100%" stop-color="#CA5377"/></linearGradient></defs><g fill="none" fill-rule="evenodd"><mask id="b" fill="#fff"><use xlink:href="#a"/></mask><g mask="url(#b)"><path fill="url(#c)" d="M0 0H70V70H0z"/><path fill="#FFF" fill-opacity=".383" d="M4 1h61c2.667 0 4.333.667 5 2V0H0v3c.667-1.333 2-2 4-2z"/><path fill="#000" fill-opacity=".383" d="M4 69h61c2.667 0 4.333-1 5-3v4H0v-4c.667 2 2 3 4 3z"/><path fill="#393939" fill-rule="nonzero" d="M37.618 10.9s-1.9 8.4 3.1 10.6L27.418 34l11.6 10.9 7.2-1.6 4.3 7.1-19.2 19.6h-27.3a3.66 3.66 0 0 1-4-4V38.9" opacity=".32"/><path fill="#000" fill-rule="nonzero" d="M36.618 12.9c5 1 6.7 3.5 5.8 7.8a34 34 0 0 1-1.2 3.4c-.4 1-.7 2-1.2 3.5 2.2.1 4 .2 5.8.3a31.28 31.28 0 0 1 4.4.4 4.41 4.41 0 0 1 3.2 5.2c-.8 4.1-1.4 8.2-2.2 12.2a54.82 54.82 0 0 1-1.7 6.7c-.5 1.7-2.1 2.2-3.7 2.7a20.64 20.64 0 0 1-11.8-.6c-2.7-.9-5.5-1.6-8.4-2.7a1.5 1.5 0 0 1-1-1.4v-2c0-4.3.1-8.7 0-13a6.94 6.94 0 0 1 1.9-5c1-1.1 1.8-2.3 2.7-3.4 2.5-3.3 6.1-5.4 6.9-9.7.2-1.1 0-3.2.5-4.4zm-15.6 21.9c0-2-.7-2.4-2.8-2.6a32.3 32.3 0 0 0-4.4 0c-2.4.1-3 .6-3.1 3.1-.1 2.8-.1 14.2 0 17.1.1 2.7 1.1 3.4 4.4 3.4 4.5.1 5.7-.5 5.8-3.2.2-5.9.2-11.8.1-17.8zm-4.5 17.8a2.32 2.32 0 0 1-2.8-2.8 2.43 2.43 0 0 1 1.7-1.7 2.32 2.32 0 0 1 2.8 2.8 2.27 2.27 0 0 1-1.7 1.7z" opacity=".37"/><path fill="#FFF" fill-rule="nonzero" d="M37.618 10.9c5 1 6.7 3.5 5.8 7.8a34 34 0 0 1-1.2 3.4c-.4 1-.7 2-1.2 3.5 2.2.1 4 .2 5.8.3a31.28 31.28 0 0 1 4.4.4 4.41 4.41 0 0 1 3.2 5.2c-.8 4.1-1.4 8.2-2.2 12.2a54.82 54.82 0 0 1-1.7 6.7c-.5 1.7-2.1 2.2-3.7 2.7a20.64 20.64 0 0 1-11.8-.6c-2.7-.9-5.5-1.6-8.4-2.7a1.5 1.5 0 0 1-1-1.4v-2c0-4.3.1-8.7 0-13a6.94 6.94 0 0 1 1.9-5c1-1.1 1.8-2.3 2.7-3.4 2.5-3.3 5.1-6.4 5.9-10.7a19.67 19.67 0 0 1 1.5-3.4zm-15.6 21.9c0-2-.7-2.4-2.8-2.6a32.3 32.3 0 0 0-4.4 0c-2.4.1-3 .6-3.1 3.1-.1 2.8-.1 14.2 0 17.1.1 2.7 1.1 3.4 4.4 3.4 4.5.1 5.7-.5 5.8-3.2.2-5.9.2-11.8.1-17.8zm-4.5 17.8a2.32 2.32 0 0 1-2.8-2.8 2.43 2.43 0 0 1 1.7-1.7 2.32 2.32 0 0 1 2.8 2.8 2.27 2.27 0 0 1-1.7 1.7z"/></g></g></svg>