<svg xmlns="http://www.w3.org/2000/svg" xmlns:xlink="http://www.w3.org/1999/xlink" width="70" height="70"><defs><path id="a" d="M4 0h61c4 0 5 1 5 5v60c0 4-1 5-5 5H4c-3 0-4-1-4-5V5c0-4 1-5 4-5z"/><linearGradient id="c" x1="100%" x2="0%" y1="0%" y2="98.616%"><stop offset="0%" stop-color="#797C79"/><stop offset="100%" stop-color="#545554"/></linearGradient></defs><g fill="none" fill-rule="evenodd"><mask id="b" fill="#fff"><use xlink:href="#a"/></mask><g mask="url(#b)"><path fill="url(#c)" d="M0 0H70V70H0z"/><path fill="#FFF" fill-opacity=".383" d="M4 1h61c2.667 0 4.333.667 5 2V0H0v3c.667-1.333 2-2 4-2z"/><path fill="#393939" d="M4 69c-2 0-4-.143-4-4V40.04l23.439-27.433 4.732 9.663 11.301 9.85L57.655 35 43.5 69H4z" opacity=".324"/><path fill="#000" fill-opacity=".383" d="M4 69h61c2.667 0 4.333-1 5-3v4H0v-4c.667 2 2 3 4 3z"/><path fill="#000" fill-opacity=".3" fill-rule="nonzero" d="M24 37.772a1 1 0 1 1 0 2h-.5v1.106a9.687 9.687 0 0 1 3.52 1.235 9.964 9.964 0 0 1 2.709 2.299l1.27-.93a1 1 0 0 1 1.38.194l.29.373a1 1 0 0 1-.199 1.42l-1.414 1.035A9.813 9.813 0 0 1 32 50.772c0 1.814-.447 3.487-1.341 5.02a9.955 9.955 0 0 1-3.64 3.639c-1.531.894-3.204 1.34-5.019 1.34s-3.487-.446-5.02-1.34a9.955 9.955 0 0 1-3.639-3.64C12.447 54.26 12 52.587 12 50.77c0-1.814.447-3.486 1.341-5.02a9.955 9.955 0 0 1 3.64-3.638 9.683 9.683 0 0 1 3.519-1.235v-1.106H20a1 1 0 0 1 0-2h4zm-2 6c-1.27 0-2.44.313-3.513.94a6.978 6.978 0 0 0-2.548 2.547A6.842 6.842 0 0 0 15 50.772c0 1.27.313 2.44.94 3.513a6.978 6.978 0 0 0 2.547 2.548 6.842 6.842 0 0 0 3.513.939c1.27 0 2.44-.313 3.513-.94a6.978 6.978 0 0 0 2.548-2.547A6.842 6.842 0 0 0 29 50.772c0-1.27-.313-2.44-.94-3.513a6.978 6.978 0 0 0-2.547-2.548A6.842 6.842 0 0 0 22 43.77zm1.5 2c.146 0 .266.04.36.123a.4.4 0 0 1 .14.315v6.124a.4.4 0 0 1-.14.315.526.526 0 0 1-.36.123h-5a.526.526 0 0 1-.36-.123.4.4 0 0 1-.14-.315v-.874a.4.4 0 0 1 .14-.315.526.526 0 0 1 .36-.123H22v-4.813a.4.4 0 0 1 .14-.314.526.526 0 0 1 .36-.123h1zm6.238-32.201c1.011.554 1.642 1.47 1.891 2.754.13.666.11 1.322-.056 1.97-.167.647-.38 1.186-.64 1.615-.26.43-.477.948-.652 1.555a3.821 3.821 0 0 0-.087 1.81c.18.927.65 1.539 1.411 1.837.76.299 1.633.353 2.617.16 1.032-.2 2.46-.603 4.282-1.21 1.823-.607 3.11-1 3.862-1.18l.01.048c-.01.036-.01.183-.002.443.009.26.022.543.04.85.018.309.024.49.017.54.087 2.51.28 4.538.58 6.08.252 1.3.719 2.195 1.4 2.686.854.608 1.645.842 2.37.7.355-.068.738-.27 1.15-.601a9.51 9.51 0 0 0 1.124-1.065c.337-.378.804-.75 1.401-1.12a5.742 5.742 0 0 1 1.937-.755c1.322-.257 2.443.022 3.363.837.92.816 1.512 1.905 1.777 3.27.256 1.314.11 2.48-.437 3.496s-1.457 1.648-2.731 1.896a4.337 4.337 0 0 1-1.958-.062c-.643-.17-1.179-.386-1.606-.648a6.416 6.416 0 0 0-1.547-.66 3.753 3.753 0 0 0-1.8-.092c-1.774.344-2.465 1.523-2.074 3.537.124.633.434 1.54.932 2.725.498 1.184.8 2.094.907 2.73l.024.122c-.355.069-.62.129-.794.18-.539.155-1.306.4-2.304.738-.997.337-1.907.627-2.73.872-.822.244-1.604.438-2.346.582-.983.19-1.856.138-2.617-.161-.76-.3-1.23-.91-1.41-1.836a3.821 3.821 0 0 1 .087-1.811 6.465 6.465 0 0 1 .651-1.555c.26-.43.473-.968.64-1.615a4.417 4.417 0 0 0 .056-1.97c-.249-1.283-.88-2.2-1.89-2.754-1.011-.553-2.17-.703-3.476-.45a7.23 7.23 0 0 0-.443.1c-2.167-1.98-5.39-3.387-10.167-3.387-1.606 0-3.15.26-4.594.743l-1.393-7.17c.035.01.182.012.44.004.257-.008.54-.02.846-.038.306-.017.485-.023.536-.016 2.495-.08 4.508-.27 6.04-.567 1.29-.25 2.177-.718 2.664-1.403.602-.858.833-1.653.69-2.383-.069-.357-.27-.744-.6-1.16a9.594 9.594 0 0 0-1.062-1.133c-.376-.34-.748-.81-1.116-1.413a5.853 5.853 0 0 1-.755-1.95c-.26-1.332.015-2.46.823-3.383.808-.924 1.897-1.52 3.268-1.785 1.29-.251 2.44-.1 3.451.453z"/><path fill="#FFF" fill-rule="nonzero" d="M24 35.772a1 1 0 1 1 0 2h-.5v1.106a9.687 9.687 0 0 1 3.52 1.235 9.964 9.964 0 0 1 2.709 2.299l1.27-.93a1 1 0 0 1 1.38.194l.29.373a1 1 0 0 1-.199 1.42l-1.414 1.035A9.813 9.813 0 0 1 32 48.772c0 1.814-.447 3.487-1.341 5.02a9.955 9.955 0 0 1-3.64 3.639c-1.531.894-3.204 1.34-5.019 1.34s-3.487-.446-5.02-1.34a9.955 9.955 0 0 1-3.639-3.64C12.447 52.26 12 50.587 12 48.77c0-1.814.447-3.486 1.341-5.02a9.955 9.955 0 0 1 3.64-3.638 9.683 9.683 0 0 1 3.519-1.235v-1.106H20a1 1 0 0 1 0-2h4zm-2 6c-1.27 0-2.44.313-3.513.94a6.978 6.978 0 0 0-2.548 2.547A6.842 6.842 0 0 0 15 48.772c0 1.27.313 2.44.94 3.513a6.978 6.978 0 0 0 2.547 2.548 6.842 6.842 0 0 0 3.513.939c1.27 0 2.44-.313 3.513-.94a6.978 6.978 0 0 0 2.548-2.547A6.842 6.842 0 0 0 29 48.772c0-1.27-.313-2.44-.94-3.513a6.978 6.978 0 0 0-2.547-2.548A6.842 6.842 0 0 0 22 41.77zm1.5 2c.146 0 .266.04.36.123a.4.4 0 0 1 .14.315v6.124a.4.4 0 0 1-.14.315.526.526 0 0 1-.36.123h-5a.526.526 0 0 1-.36-.123.4.4 0 0 1-.14-.315v-.874a.4.4 0 0 1 .14-.315.526.526 0 0 1 .36-.123H22v-4.813a.4.4 0 0 1 .14-.314.526.526 0 0 1 .36-.123h1zm6.238-32.201c1.011.554 1.642 1.47 1.891 2.754.13.666.11 1.322-.056 1.97-.167.647-.38 1.186-.64 1.615-.26.43-.477.948-.652 1.555a3.821 3.821 0 0 0-.087 1.81c.18.927.65 1.539 1.411 1.837.76.299 1.633.353 2.617.16 1.032-.2 2.46-.603 4.282-1.21 1.823-.607 3.11-1 3.862-1.18l.01.048c-.01.036-.01.183-.002.443.009.26.022.543.04.85.018.309.024.49.017.54.087 2.51.28 4.538.58 6.08.252 1.3.719 2.195 1.4 2.686.854.608 1.645.842 2.37.7.355-.068.738-.27 1.15-.601a9.51 9.51 0 0 0 1.124-1.065c.337-.378.804-.75 1.401-1.12a5.742 5.742 0 0 1 1.937-.755c1.322-.257 2.443.022 3.363.837.92.816 1.512 1.905 1.777 3.27.256 1.314.11 2.48-.437 3.496s-1.457 1.648-2.731 1.896a4.337 4.337 0 0 1-1.958-.062c-.643-.17-1.179-.386-1.606-.648a6.416 6.416 0 0 0-1.547-.66 3.753 3.753 0 0 0-1.8-.092c-1.774.344-2.465 1.523-2.074 3.537.124.633.434 1.54.932 2.725.498 1.184.8 2.094.907 2.73l.024.122c-.355.069-.62.129-.794.18-.539.155-1.306.4-2.304.738-.997.337-1.907.627-2.73.872-.822.244-1.604.438-2.346.582-.983.19-1.856.138-2.617-.161-.76-.3-1.23-.91-1.41-1.836a3.821 3.821 0 0 1 .087-1.811 6.465 6.465 0 0 1 .651-1.555c.26-.43.473-.968.64-1.615a4.417 4.417 0 0 0 .056-1.97c-.249-1.283-.88-2.2-1.89-2.754-1.011-.553-2.17-.703-3.476-.45a7.23 7.23 0 0 0-.443.1c-2.167-1.98-5.39-3.387-10.167-3.387-1.606 0-3.15.26-4.594.743l-1.393-7.17c.035.01.182.012.44.004.257-.008.54-.02.846-.038.306-.017.485-.023.536-.016 2.495-.08 4.508-.27 6.04-.567 1.29-.25 2.177-.718 2.664-1.403.602-.858.833-1.653.69-2.383-.069-.357-.27-.744-.6-1.16a9.594 9.594 0 0 0-1.062-1.133c-.376-.34-.748-.81-1.116-1.413a5.853 5.853 0 0 1-.755-1.95c-.26-1.332.015-2.46.823-3.383.808-.924 1.897-1.52 3.268-1.785 1.29-.251 2.44-.1 3.451.453z"/></g></g></svg>