<svg xmlns="http://www.w3.org/2000/svg" xmlns:xlink="http://www.w3.org/1999/xlink" width="70" height="70" viewBox="0 0 70 70"><defs><path id="a" d="M4 0h61c4 0 5 1 5 5v60c0 4-1 5-5 5H4c-3 0-4-1-4-5V5c0-4 1-5 4-5z"/><linearGradient id="c" x1="100%" x2="0%" y1="0%" y2="100%"><stop offset="0%" stop-color="#B06161"/><stop offset="45.785%" stop-color="#984E4E"/><stop offset="100%" stop-color="#7C3838"/></linearGradient><path id="d" d="M41.8 27.25c-3.982-7.332-6.249-10.999-6.8-11-.55-.001-2.816 3.666-6.8 11-8.196 1.654-12.36 2.777-12.492 3.369-.111.496 2.652 3.74 8.29 9.733-1.061 8.252-1.387 12.544-.978 12.876.45.365 4.444-1.23 11.98-4.784 7.621 3.535 11.658 5.091 12.11 4.668.357-.334-.012-4.587-1.107-12.76 5.629-5.956 8.397-9.176 8.305-9.66-.117-.612-4.287-1.76-12.508-3.441zm.477 11.872l1.715 10.135L35 44.475V21.238l4.5 9.227 10.054 1.48-7.277 7.177z"/><path id="e" d="M41.8 25.25c-3.982-7.332-6.249-10.999-6.8-11-.55-.001-2.816 3.666-6.8 11-8.196 1.654-12.36 2.777-12.492 3.369-.111.496 2.652 3.74 8.29 9.733-1.061 8.252-1.387 12.544-.978 12.876.45.365 4.444-1.23 11.98-4.784 7.621 3.535 11.658 5.091 12.11 4.668.357-.334-.012-4.587-1.107-12.76 5.629-5.956 8.397-9.176 8.305-9.66-.117-.612-4.287-1.76-12.508-3.441zm.477 11.872l1.715 10.135L35 42.475V19.238l4.5 9.227 10.054 1.48-7.277 7.177z"/></defs><g fill="none" fill-rule="evenodd"><mask id="b" fill="#fff"><use xlink:href="#a"/></mask><g mask="url(#b)"><path fill="url(#c)" d="M0 0H70V70H0z"/><path fill="#FFF" fill-opacity=".383" d="M4 1h61c2.667 0 4.333.667 5 2V0H0v3c.667-1.333 2-2 4-2z"/><path fill="#393939" d="M31.322 69H4c-2 0-4-1-4-4l.069-22.987 15.763-13.48 4.38.119L35 14.287 41 27l13.21 1.892-9.676 13.121 2.564 9.042L31.322 69z" opacity=".324"/><path fill="#000" fill-opacity=".383" d="M4 69h61c2.667 0 4.333-1 5-3v4H0v-4c.667 2 2 3 4 3z"/><use fill="#000" fill-rule="nonzero" opacity=".3" xlink:href="#d"/><use fill="#FFF" fill-rule="nonzero" xlink:href="#e"/></g></g></svg>