<svg xmlns="http://www.w3.org/2000/svg" xmlns:xlink="http://www.w3.org/1999/xlink" width="70" height="70"><defs><path id="a" d="M4 0h61c4 0 5 1 5 5v60c0 4-1 5-5 5H4c-3 0-4-1-4-5V5c0-4 1-5 4-5z"/><linearGradient id="c" x1="100%" x2="0%" y1="0%" y2="100%"><stop offset="0%" stop-color="#94B6C8"/><stop offset="100%" stop-color="#6A9EBA"/></linearGradient></defs><g fill="none" fill-rule="evenodd"><mask id="b" fill="#fff"><use xlink:href="#a"/></mask><g mask="url(#b)"><path fill="url(#c)" d="M0 0H70V70H0z"/><path fill="#FFF" fill-opacity=".383" d="M4 1h61c2.667 0 4.333.667 5 2V0H0v3c.667-1.333 2-2 4-2z"/><path fill="#393939" d="M30.085 69H4c-2 0-4-1-4-4V34.065l17.754-18.09L59 17l-5.666 28.965L30.084 69z" opacity=".324"/><path fill="#000" fill-opacity=".383" d="M4 69h61c2.667 0 4.333-1 5-3v4H0v-4c.667 2 2 3 4 3z"/><path fill="#000" fill-rule="nonzero" d="M38.593 24.834c3.579.477 5.522.452 6.496 1.926l-17.652-.017 2.71 8.398s12.399-5.874 17.51-4.722c.418.094.917.485.038.528-1.306.065-7.603 1.209-16.755 5.67-7.2 3.51-13.67 6.736-20.94 10.474l4.749-22.513c2.63-.026 20.53-.185 23.844.256zM17.682 18H60l-6.66 30H12.727l39.108-15.234s2.721-3.806 1.657-5.808c-.83-1.564-5.354-1.02-5.354-1.02s-.528-1.407-4.663-2.312C34.878 21.749 26.28 19.874 17.682 18zm29.209 9.523s3.047-.082 3.907.094c.86.175 1.049.683 1.017 1.172-.032.488-1.144 2.554-1.326 2.726-.182.171-.409.177-.29-.085.119-.263.583-1.38.672-1.753.088-.373.18-.758-.51-.82-.689-.063-6.877.135-7.324.121-.448-.013-.367-.214-.028-.24 3.703-.287 3.882-1.215 3.882-1.215zM11.808 53.508h-1.284v-.792h3.51v.792H12.75V57h-.942v-3.492zm2.718-.792h1.326l1.002 2.946h.012l.948-2.946h1.326V57h-.882v-3.036h-.012L17.196 57h-.726l-1.05-3.006h-.012V57h-.882v-4.284z" opacity=".3"/><path fill="#FFF" fill-rule="nonzero" d="M38.593 22.834c3.579.477 5.522.452 6.496 1.926l-17.652-.017 2.71 8.398s12.399-5.874 17.51-4.722c.418.094.917.485.038.528-1.306.065-7.603 1.209-16.755 5.67-7.2 3.51-13.67 6.736-20.94 10.474l4.749-22.513c2.63-.026 20.53-.185 23.844.256zM17.682 16H60l-6.66 30H12.727l39.108-15.234s2.721-3.806 1.657-5.808c-.83-1.564-5.354-1.02-5.354-1.02s-.528-1.407-4.663-2.312C34.878 19.749 26.28 17.874 17.682 16zm29.209 9.523s3.047-.082 3.907.094c.86.175 1.049.683 1.017 1.172-.032.488-1.144 2.554-1.326 2.726-.182.171-.409.177-.29-.085.119-.263.583-1.38.672-1.753.088-.373.18-.758-.51-.82-.689-.063-6.877.135-7.324.121-.448-.013-.367-.214-.028-.24 3.703-.287 3.882-1.215 3.882-1.215zM11.808 51.508h-1.284v-.792h3.51v.792H12.75V55h-.942v-3.492zm2.718-.792h1.326l1.002 2.946h.012l.948-2.946h1.326V55h-.882v-3.036h-.012L17.196 55h-.726l-1.05-3.006h-.012V55h-.882v-4.284z"/></g></g></svg>