<svg xmlns="http://www.w3.org/2000/svg" xmlns:xlink="http://www.w3.org/1999/xlink" width="70" height="70" viewBox="0 0 70 70">
    <defs>
        <path id="icon-a" d="M4 0h61c4 0 5 1 5 5v60c0 4-1 5-5 5H4c-3 0-4-1-4-5V5c0-4 1-5 4-5z"/>
        <linearGradient id="icon-c" x1="100%" x2="0%" y1="0%" y2="100%">
            <stop offset="0%" stop-color="#CD7690"/>
            <stop offset="100%" stop-color="#CA5377"/>
        </linearGradient>
    </defs>
    <g fill="none" fill-rule="evenodd">
        <mask id="icon-b" fill="#fff">
            <use xlink:href="#icon-a"/>
        </mask>
        <g mask="url(#icon-b)">
            <path fill="url(#icon-c)" d="M0 0H70V70H0z"/>
            <path fill="#FFF" fill-opacity=".383" d="M4 1h61c2.667 0 4.333.667 5 2V0H0v3c.667-1.333 2-2 4-2z"/>
            <path fill="#393939" d="M4 69c-2 0-4-1-4-4V36.13l15.82-16.026C29.154 11.438 42.333 9 51 17c8.667 8 9.643 19.544 2.976 33.544L36.248 69H4z" opacity=".324"/>
            <path fill="#000" fill-opacity=".383" d="M4 69h61c2.667 0 4.333-1 5-3v4H0v-4c.667 2 2 3 4 3z"/>
            <path fill="#000" d="M35.5 12c3.318 0 6.49.647 9.516 1.941 3.026 1.295 5.632 3.036 7.82 5.223 2.187 2.188 3.928 4.794 5.223 7.82A23.95 23.95 0 0 1 60 36.5c0 3.318-.647 6.49-1.941 9.516-1.295 3.026-3.036 5.632-5.223 7.82-2.188 2.187-4.794 3.928-7.82 5.223A23.95 23.95 0 0 1 35.5 61a23.95 23.95 0 0 1-9.516-1.941c-3.026-1.295-5.632-3.036-7.82-5.223-2.187-2.188-3.928-4.794-5.223-7.82A23.95 23.95 0 0 1 11 36.5c0-3.318.647-6.49 1.941-9.516 1.295-3.026 3.036-5.632 5.223-7.82 2.188-2.187 4.794-3.928 7.82-5.223A23.95 23.95 0 0 1 35.5 12zm.5 3c-3.86 0-7.526.95-11 2.852L30.911 24A15.103 15.103 0 0 1 36 23.113c1.727 0 3.423.295 5.089.887L47 17.852C43.526 15.951 39.86 15 36 15zM16.852 47L23 41.357a13.83 13.83 0 0 1-.887-4.857c0-1.648.295-3.267.887-4.857L16.852 26C14.951 29.316 14 32.816 14 36.5s.95 7.184 2.852 10.5zM36 58c3.86 0 7.526-.95 11-2.852L41.089 49a15.103 15.103 0 0 1-5.089.887c-1.727 0-3.423-.295-5.089-.887L25 55.148C28.474 57.049 32.14 58 36 58zm0-11c3.036 0 5.629-1.074 7.777-3.223C45.926 41.63 47 39.037 47 36c0-3.036-1.074-5.629-3.223-7.777C41.63 26.074 39.037 25 36 25c-3.036 0-5.629 1.074-7.777 3.223C26.074 30.37 25 32.963 25 36c0 3.036 1.074 5.629 3.223 7.777C30.37 45.926 32.963 47 36 47zm13-5.643L55.148 47C57.049 43.684 58 40.184 58 36.5s-.95-7.184-2.852-10.5L49 31.643c.592 1.59.887 3.209.887 4.857A13.83 13.83 0 0 1 49 41.357z" opacity=".3"/>
            <path fill="#FFF" d="M35.5 10c3.318 0 6.49.647 9.516 1.941 3.026 1.295 5.632 3.036 7.82 5.223 2.187 2.188 3.928 4.794 5.223 7.82A23.95 23.95 0 0 1 60 34.5c0 3.318-.647 6.49-1.941 9.516-1.295 3.026-3.036 5.632-5.223 7.82-2.188 2.187-4.794 3.928-7.82 5.223A23.95 23.95 0 0 1 35.5 59a23.95 23.95 0 0 1-9.516-1.941c-3.026-1.295-5.632-3.036-7.82-5.223-2.187-2.188-3.928-4.794-5.223-7.82A23.95 23.95 0 0 1 11 34.5c0-3.318.647-6.49 1.941-9.516 1.295-3.026 3.036-5.632 5.223-7.82 2.188-2.187 4.794-3.928 7.82-5.223A23.95 23.95 0 0 1 35.5 10zm.5 3c-3.86 0-7.526.95-11 2.852L30.911 22A15.103 15.103 0 0 1 36 21.113c1.727 0 3.423.295 5.089.887L47 15.852C43.526 13.951 39.86 13 36 13zM16.852 45L23 39.357a13.83 13.83 0 0 1-.887-4.857c0-1.648.295-3.267.887-4.857L16.852 24C14.951 27.316 14 30.816 14 34.5s.95 7.184 2.852 10.5zM36 56c3.86 0 7.526-.95 11-2.852L41.089 47a15.103 15.103 0 0 1-5.089.887c-1.727 0-3.423-.295-5.089-.887L25 53.148C28.474 55.049 32.14 56 36 56zm0-10c3.036 0 5.629-1.074 7.777-3.223C45.926 40.63 47 38.037 47 35c0-3.036-1.074-5.629-3.223-7.777C41.63 25.074 39.037 24 36 24c-3.036 0-5.629 1.074-7.777 3.223C26.074 29.37 25 31.963 25 35c0 3.036 1.074 5.629 3.223 7.777C30.37 44.926 32.963 46 36 46zm13-6.643L55.148 45C57.049 41.684 58 38.184 58 34.5s-.95-7.184-2.852-10.5L49 29.643c.592 1.59.887 3.209.887 4.857A13.83 13.83 0 0 1 49 39.357z"/>
        </g>
    </g>
</svg>
