<svg xmlns="http://www.w3.org/2000/svg" xmlns:xlink="http://www.w3.org/1999/xlink" width="70" height="70" viewBox="0 0 70 70"><defs><path id="a" d="M4 0h61c4 0 5 1 5 5v60c0 4-1 5-5 5H4c-3 0-4-1-4-5V5c0-4 1-5 4-5z"/><linearGradient id="c" x1="100%" x2="0%" y1="0%" y2="100%"><stop offset="0%" stop-color="#CDC484"/><stop offset="100%" stop-color="#B5AA59"/></linearGradient></defs><g fill="none" fill-rule="evenodd"><mask id="b" fill="#fff"><use xlink:href="#a"/></mask><g mask="url(#b)"><path fill="url(#c)" d="M0 0H70V70H0z"/><path fill="#FFF" fill-opacity=".383" d="M4 1h61c2.667 0 4.333.667 5 2V0H0v3c.667-1.333 2-2 4-2z"/><path fill="#393939" d="M37.204 69H4c-2 0-4-1-4-4V36.083L18.8 14H30l1.938 3.826-2.049 5.278 5.03-4.982h1.163l4.534-4.326 5.794.768 5.51 3.93-9.147 10.77H50l-6.387 6.121h1.69L52 54 37.204 69z" opacity=".324"/><path fill="#000" fill-opacity=".383" d="M4 69h61c2.667 0 4.333-1 5-3v4H0v-4c.667 2 2 3 4 3z"/><path fill="#000" d="M20.967 27.224c.118.854.351 1.493.698 1.917.635.77 1.722 1.155 3.263 1.155.922 0 1.671-.102 2.247-.305 1.092-.39 1.637-1.113 1.637-2.17 0-.619-.27-1.097-.812-1.435-.542-.33-1.392-.622-2.552-.876l-1.98-.445c-1.947-.44-3.293-.918-4.037-1.434-1.261-.863-1.892-2.213-1.892-4.05 0-1.676.61-3.068 1.828-4.177 1.219-1.108 3.009-1.663 5.37-1.663 1.972 0 3.654.523 5.047 1.568 1.392 1.045 2.122 2.562 2.19 4.551h-3.758c-.068-1.125-.559-1.925-1.473-2.4-.61-.312-1.367-.469-2.272-.469-1.007 0-1.811.203-2.412.61-.601.406-.902.973-.902 1.7 0 .67.296 1.169.889 1.499.38.22 1.193.478 2.437.774l3.225.775c1.413.338 2.48.791 3.2 1.358 1.116.88 1.675 2.154 1.675 3.821 0 1.71-.654 3.13-1.961 4.26-1.308 1.13-3.155 1.694-5.542 1.694-2.437 0-4.354-.556-5.75-1.669-1.397-1.113-2.096-2.643-2.096-4.59h3.733zm13.393.457l.534-2.552h3.135a18.337 18.337 0 0 1-.013-2.526H34.36l.534-2.552h3.478c.356-1.515.96-2.785 1.816-3.809 1.278-1.54 2.907-2.31 4.887-2.31 2.64 0 4.575 1.032 5.802 3.097.677 1.16 1.041 2.324 1.092 3.492H48.68c-.212-.898-.487-1.575-.826-2.032-.592-.812-1.476-1.218-2.653-1.218-1.193 0-2.137.575-2.83 1.726a5.757 5.757 0 0 0-.483 1.054h5.04l-.533 2.552H41.38a19.76 19.76 0 0 0-.038 1.256c0 .449.012.872.038 1.27h4.697l-.533 2.552h-3.593c.136.33.296.63.483.901.727 1.041 1.654 1.562 2.78 1.562 1.15 0 2.027-.449 2.628-1.346.338-.483.618-1.206.838-2.171h3.25c-.288 2.04-1.016 3.699-2.184 4.977-1.168 1.278-2.666 1.917-4.494 1.917-2.26 0-4.037-.864-5.332-2.59-.677-.906-1.177-1.99-1.498-3.25H34.36zm-5.402 15.56c0-.973-.256-1.667-.768-2.082-.512-.415-1.229-.622-2.151-.622h-3.644v5.51h3.644c.922 0 1.64-.224 2.151-.673.512-.449.768-1.16.768-2.133zm3.873-.025c0 2.209-.559 3.77-1.676 4.684-1.117.914-2.713 1.371-4.786 1.371h-3.974V56H18.51V37.287h8.15c1.88 0 3.378.483 4.495 1.447 1.117.965 1.676 2.459 1.676 4.482zm8.048 5.713h4.748l-2.335-7.364-2.413 7.364zm.242-11.642h4.418L52.166 56h-4.24l-1.207-3.847h-6.893L38.53 56h-4.088l6.678-18.713z" opacity=".3"/><path fill="#FFF" d="M20.967 25.224c.118.854.351 1.493.698 1.917.635.77 1.722 1.155 3.263 1.155.922 0 1.671-.102 2.247-.305 1.092-.39 1.637-1.113 1.637-2.17 0-.619-.27-1.097-.812-1.435-.542-.33-1.392-.622-2.552-.876l-1.98-.445c-1.947-.44-3.293-.918-4.037-1.434-1.261-.863-1.892-2.213-1.892-4.05 0-1.676.61-3.068 1.828-4.177 1.219-1.108 3.009-1.663 5.37-1.663 1.972 0 3.654.523 5.047 1.568 1.392 1.045 2.122 2.562 2.19 4.551h-3.758c-.068-1.125-.559-1.925-1.473-2.4-.61-.312-1.367-.469-2.272-.469-1.007 0-1.811.203-2.412.61-.601.406-.902.973-.902 1.7 0 .67.296 1.169.889 1.499.38.22 1.193.478 2.437.774l3.225.775c1.413.338 2.48.791 3.2 1.358 1.116.88 1.675 2.154 1.675 3.821 0 1.71-.654 3.13-1.961 4.26-1.308 1.13-3.155 1.694-5.542 1.694-2.437 0-4.354-.556-5.75-1.669-1.397-1.113-2.096-2.643-2.096-4.59h3.733zm13.393.457l.534-2.552h3.135a18.337 18.337 0 0 1-.013-2.526H34.36l.534-2.552h3.478c.356-1.515.96-2.785 1.816-3.809 1.278-1.54 2.907-2.31 4.887-2.31 2.64 0 4.575 1.032 5.802 3.097.677 1.16 1.041 2.324 1.092 3.492H48.68c-.212-.898-.487-1.575-.826-2.032-.592-.812-1.476-1.218-2.653-1.218-1.193 0-2.137.575-2.83 1.726a5.757 5.757 0 0 0-.483 1.054h5.04l-.533 2.552H41.38a19.76 19.76 0 0 0-.038 1.256c0 .449.012.872.038 1.27h4.697l-.533 2.552h-3.593c.136.33.296.63.483.901.727 1.041 1.654 1.562 2.78 1.562 1.15 0 2.027-.449 2.628-1.346.338-.483.618-1.206.838-2.171h3.25c-.288 2.04-1.016 3.699-2.184 4.977-1.168 1.278-2.666 1.917-4.494 1.917-2.26 0-4.037-.864-5.332-2.59-.677-.906-1.177-1.99-1.498-3.25H34.36zm-5.402 15.56c0-.973-.256-1.667-.768-2.082-.512-.415-1.229-.622-2.151-.622h-3.644v5.51h3.644c.922 0 1.64-.224 2.151-.673.512-.449.768-1.16.768-2.133zm3.873-.025c0 2.209-.559 3.77-1.676 4.684-1.117.914-2.713 1.371-4.786 1.371h-3.974V54H18.51V35.287h8.15c1.88 0 3.378.483 4.495 1.447 1.117.965 1.676 2.459 1.676 4.482zm8.048 5.713h4.748l-2.335-7.364-2.413 7.364zm.242-11.642h4.418L52.166 54h-4.24l-1.207-3.847h-6.893L38.53 54h-4.088l6.678-18.713z"/></g></g></svg>