<svg xmlns="http://www.w3.org/2000/svg" xmlns:xlink="http://www.w3.org/1999/xlink" width="70" height="70" viewBox="0 0 70 70"><defs><path id="a" d="M4 0h61c4 0 5 1 5 5v60c0 4-1 5-5 5H4c-3 0-4-1-4-5V5c0-4 1-5 4-5z"/><linearGradient id="c" x1="100%" x2="0%" y1="0%" y2="100%"><stop offset="0%" stop-color="#269396"/><stop offset="100%" stop-color="#218689"/></linearGradient><path id="d" d="M32.396 38.387a11.393 11.393 0 0 0-7.172-4.245v-7.348s9.094 2.16 9.094-1.512c0-1.185-1.64-2.13-1.64-4.31 0-1.976 1.64-2.972 3.432-2.972 1.724 0 3.178 1.013 3.178 2.886 0 2.095-1.876 2.645-1.876 4.534 0 4.392 10.15.174 10.15.174s-2.823 9.294.278 9.294c1.166 0 2.096-1.666 4.243-1.666 1.944 0 2.924 1.666 2.924 3.47 0 1.768-.997 3.245-2.84 3.245-2.062 0-2.603-1.906-4.462-1.906-3.131 0-1.336 6.333-1.336 6.333-2.666 0-9.37 1.85-9.37-1.356 0-1.89 1.875-2.44 1.875-4.535 0-1.872-1.453-2.885-3.194-2.885-1.723 0-3.199.938-3.284 2.8zm-9.778-2.075C17.305 36.313 13 40.648 13 46s4.305 9.688 9.618 9.688c5.313 0 9.617-4.336 9.617-9.688s-4.304-9.688-9.617-9.688zm1.656 13.676l-3.42-2.504a.473.473 0 0 1-.19-.379v-6.574c0-.258.208-.468.464-.468h1.862c.256 0 .465.21.465.468v5.38l2.463 1.804a.47.47 0 0 1 .1.656l-1.093 1.516a.466.466 0 0 1-.651.101z"/><path id="e" d="M32.396 36.387a11.393 11.393 0 0 0-7.172-4.245v-7.348s9.094 2.16 9.094-1.512c0-1.185-1.64-2.13-1.64-4.31 0-1.976 1.64-2.972 3.432-2.972 1.724 0 3.178 1.013 3.178 2.886 0 2.095-1.876 2.645-1.876 4.534 0 4.392 10.15.174 10.15.174s-2.823 9.294.278 9.294c1.166 0 2.096-1.666 4.243-1.666 1.944 0 2.924 1.666 2.924 3.47 0 1.768-.997 3.245-2.84 3.245-2.062 0-2.603-1.906-4.462-1.906-3.131 0-1.336 6.333-1.336 6.333-2.666 0-9.37 1.85-9.37-1.356 0-1.89 1.875-2.44 1.875-4.535 0-1.872-1.453-2.885-3.194-2.885-1.723 0-3.199.938-3.284 2.8zm-9.778-2.075C17.305 34.313 13 38.648 13 44s4.305 9.688 9.618 9.688c5.313 0 9.617-4.336 9.617-9.688s-4.304-9.688-9.617-9.688zm1.656 13.676l-3.42-2.504a.473.473 0 0 1-.19-.379v-6.574c0-.258.208-.468.464-.468h1.862c.256 0 .465.21.465.468v5.38l2.463 1.804a.47.47 0 0 1 .1.656l-1.093 1.516a.466.466 0 0 1-.651.101z"/></defs><g fill="none" fill-rule="evenodd"><mask id="b" fill="#fff"><use xlink:href="#a"/></mask><g mask="url(#b)"><path fill="url(#c)" d="M0 0H70V70H0z"/><path fill="#FFF" fill-opacity=".383" d="M4 1h61c2.667 0 4.333.667 5 2V0H0v3c.667-1.333 2-2 4-2z"/><path fill="#393939" d="M4 69c-2 0-4-1-4-4V41.478l20.455-17.89 1.138.719 7.783-7.102L31 17l3 9h8v6l-3 5h9l5.987 11.447L33.1 69.024 4 69z" opacity=".324"/><path fill="#000" fill-opacity=".383" d="M4 69h61c2.667 0 4.333-1 5-3v4H0v-4c.667 2 2 3 4 3z"/><use fill="#000" fill-rule="nonzero" opacity=".3" transform="matrix(-1 0 0 1 68.007 0)" xlink:href="#d"/><use fill="#FFF" fill-rule="nonzero" transform="matrix(-1 0 0 1 68.007 0)" xlink:href="#e"/></g></g></svg>