<svg xmlns="http://www.w3.org/2000/svg" xmlns:xlink="http://www.w3.org/1999/xlink" width="70" height="70" viewBox="0 0 70 70"><defs><path id="a" d="M4 0h61c4 0 5 1 5 5v60c0 4-1 5-5 5H4c-3 0-4-1-4-5V5c0-4 1-5 4-5z"/><linearGradient id="c" x1="39.189%" x2="60.296%" y1="0%" y2="100%"><stop offset="0%" stop-color="#D75F94"/><stop offset="100%" stop-color="#D26060"/></linearGradient></defs><g fill="none" fill-rule="evenodd"><mask id="b" fill="#fff"><use xlink:href="#a"/></mask><g mask="url(#b)"><g transform="translate(-7 -7)"><rect width="80" height="80" fill="url(#c)" rx="10"/><path fill="#393939" d="M44.756 76H11c-2 0-4-1-4-4V41.482l14.928-13.846.401.487L28 22l18 20 14 17-15.244 17z" opacity=".324"/><path fill="#000" fill-opacity=".383" d="M11 76h61c2.667 0 4.333-1 5-3v4H7v-4c.667 2 2 3 4 3z"/><path fill="#000" d="M27.461 23.926c2.925-.947 6.24-.277 8.536 2.02 2.287 2.286 2.96 5.583 2.032 8.499l2.506 2.506-5.538 5.537-2.477-2.477c-2.936.97-6.275.306-8.585-2.003-2.288-2.289-2.961-5.589-2.03-8.506l3.912 3.911a3.94 3.94 0 0 0 5.569.003 3.938 3.938 0 0 0-.003-5.569l-3.922-3.921zm-3.388 32.151L54.111 26.04c1.638-1.638 4.3-1.647 5.935-.01l.106.105a4.188 4.188 0 0 1 0 5.927L30.048 62.165 21.7 64.406l2.373-8.329zm35.856 5.396a3.918 3.918 0 0 1-5.537.001L44.11 51.192l5.538-5.538L59.93 55.937a3.915 3.915 0 0 1-.001 5.536z" opacity=".3"/><path fill="#FFF" d="M27.461 21.926c2.925-.947 6.24-.277 8.536 2.02 2.287 2.286 2.96 5.583 2.032 8.499l2.506 2.506-5.538 5.537-2.477-2.477c-2.936.97-6.275.306-8.585-2.003-2.288-2.289-2.961-5.589-2.03-8.506l3.912 3.911a3.94 3.94 0 0 0 5.569.003 3.938 3.938 0 0 0-.003-5.569l-3.922-3.921zm-3.388 32.151L54.111 24.04c1.638-1.638 4.3-1.647 5.935-.01l.106.105a4.188 4.188 0 0 1 0 5.927L30.048 60.165 21.7 62.406l2.373-8.329zm35.856 5.396a3.918 3.918 0 0 1-5.537.001L44.11 49.192l5.538-5.538L59.93 53.937a3.915 3.915 0 0 1-.001 5.536z"/></g></g></g></svg>