<svg xmlns="http://www.w3.org/2000/svg" xmlns:xlink="http://www.w3.org/1999/xlink" width="70" height="70" viewBox="0 0 70 70"><defs><path id="a" d="M4 0h61c4 0 5 1 5 5v60c0 4-1 5-5 5H4c-3 0-4-1-4-5V5c0-4 1-5 4-5z"/><linearGradient id="c" x1="100%" x2="0%" y1="0%" y2="100%"><stop offset="0%" stop-color="#B06161"/><stop offset="45.785%" stop-color="#984E4E"/><stop offset="100%" stop-color="#7C3838"/></linearGradient></defs><g fill="none" fill-rule="evenodd"><mask id="b" fill="#fff"><use xlink:href="#a"/></mask><g mask="url(#b)"><path fill="url(#c)" d="M0 0H70V70H0z"/><path fill="#FFF" fill-opacity=".383" d="M4 1h61c2.667 0 4.333.667 5 2V0H0v3c.667-1.333 2-2 4-2z"/><path fill="#393939" d="M27.618 68.752L4 69c-2 0-4-.146-4-4.078V41.734l20.368-17.87 9.87-5.359 1.892 1.873 4.76-3.256 6.255-.784 7.291 3.63 3.327 10.264-9.306 13.421h2.689l-19.528 25.1z" opacity=".324"/><path fill="#000" fill-opacity=".383" d="M4 69h61c2.667 0 4.333-1 5-3v4H0v-4c.667 2 2 3 4 3z"/><path fill="#000" d="M48.144 43.694c-.277.66-.599 1.307-.966 1.94a16.68 16.68 0 0 1-6.081 6.113C38.537 53.249 35.74 54 32.71 54c-3.032 0-5.828-.751-8.388-2.253a16.68 16.68 0 0 1-6.081-6.114C16.747 43.06 16 40.25 16 37.201s.747-5.859 2.241-8.433a16.68 16.68 0 0 1 6.081-6.113 16.14 16.14 0 0 1 6.704-2.174 14.534 14.534 0 0 0-3.957 5.522 1.13 1.13 0 0 1-.137-.008.404.404 0 0 1-.294-.175c-.058-.116-.058-.262 0-.437.015-.058.044-.073.087-.044a3.265 3.265 0 0 1-.24-.208 2.126 2.126 0 0 0-.217-.186c-.667.22-1.349.518-2.045.897a.533.533 0 0 0 .261-.022c.073-.029.167-.076.283-.142.116-.065.189-.106.218-.12.493-.204.797-.255.913-.153l.11-.11c.202.234.347.416.434.547-.101-.058-.319-.065-.652-.022-.29.088-.45.175-.48.263.102.175.139.306.11.394a3.403 3.403 0 0 1-.25-.22 1.726 1.726 0 0 0-.316-.24.865.865 0 0 0-.326-.11c-.232 0-.392.008-.479.023a13.76 13.76 0 0 0-5.113 4.856c.102.102.189.16.261.175.058.014.094.08.109.197a.842.842 0 0 0 .054.24c.022.044.105.022.25-.065.131.116.153.255.066.415.014-.014.333.182.957.59.276.249.428.402.457.46.044.16-.029.292-.218.394a1.116 1.116 0 0 0-.195-.197c-.116-.102-.182-.131-.196-.087-.044.072-.04.207.01.404.051.197.128.288.23.274-.102 0-.171.116-.208.35a5.08 5.08 0 0 0-.054.776c0 .284-.007.456-.022.514l.044.022c-.044.175-.004.427.12.755.123.328.279.47.467.426-.188.044-.043.358.435.94.087.117.145.183.174.198.044.029.131.084.262.164.13.08.239.153.326.218a.93.93 0 0 1 .217.23c.058.073.131.237.218.492s.189.427.305.514c-.03.088.04.234.206.438.167.204.243.372.229.503a.105.105 0 0 0-.055.022.105.105 0 0 1-.054.022c.044.102.156.204.337.306.182.102.294.197.337.284.015.044.03.117.044.219a.808.808 0 0 0 .065.24c.03.059.087.074.174.044.03-.291-.145-.743-.522-1.356-.217-.364-.34-.576-.37-.634a1.262 1.262 0 0 1-.12-.34 1.674 1.674 0 0 0-.097-.316c.029 0 .072.01.13.032.058.022.12.048.185.077.065.03.12.058.163.087.044.03.058.052.044.066-.044.102-.03.23.043.383s.16.288.261.405a29.946 29.946 0 0 0 .631.7c.087.087.189.23.305.426.116.197.116.295 0 .295.13 0 .276.073.435.22.16.145.283.29.37.437.073.116.13.306.174.568.044.263.08.438.109.525.029.102.09.2.185.296.094.094.185.164.272.207l.348.175.283.153c.072.03.206.106.402.23.196.124.352.208.468.252a.999.999 0 0 0 .348.087c.087 0 .192-.018.316-.054.123-.037.22-.062.293-.077.218-.03.428.08.631.328s.356.401.457.46c.522.276.921.357 1.197.24-.03.015-.026.07.01.164.037.095.095.208.175.34a21.465 21.465 0 0 0 .315.502c.073.088.203.197.392.328.188.132.319.241.392.328.087-.058.137-.124.152-.196-.044.116.007.262.152.437s.276.248.392.219c.203-.044.304-.277.304-.7-.45.219-.805.087-1.066-.394a.428.428 0 0 0-.054-.12 1.397 1.397 0 0 1-.142-.372.312.312 0 0 1 0-.164c.015-.044.051-.066.11-.066.13 0 .202-.025.217-.076.014-.051 0-.142-.044-.274a4.428 4.428 0 0 1-.087-.284c-.014-.117-.094-.263-.24-.438a5.824 5.824 0 0 1-.26-.328c-.073.132-.189.19-.348.175-.16-.014-.276-.08-.348-.197 0 .015-.011.055-.033.12a.523.523 0 0 0-.033.143c-.188 0-.297-.007-.326-.022.014-.044.033-.171.054-.383.022-.211.048-.375.077-.492.014-.058.054-.146.12-.262a4.525 4.525 0 0 0 .186-.373 14.219 14.219 0 0 0 9.067 3.254c2.867 0 5.539-.848 7.78-2.31zm-19.831-4.297a14.54 14.54 0 0 0 2.446 2.889c-.21.046-.358.187-.444.421-.014.044-.036.12-.065.23a.743.743 0 0 1-.109.251.542.542 0 0 1-.196.153c-.101.044-.275.059-.522.044-.247-.014-.42-.05-.522-.11-.189-.116-.352-.327-.49-.634-.138-.306-.206-.576-.206-.809 0-.146.018-.339.054-.58.036-.24.058-.422.065-.546.005-.083-.035-.262-.12-.536l.109-.773zm4.83 11.584c1.932-.339 3.68-1.035 5.242-2.088l-3.642-3.675a1.04 1.04 0 0 0-.185.164 1.088 1.088 0 0 0-.13.262c-.044.117-.08.197-.11.24-.029-.058-.112-.105-.25-.141-.138-.037-.207-.077-.207-.12.03.145.058.4.087.765.03.364.066.642.11.831.1.452.014.802-.262 1.05-.391.365-.602.656-.63.875-.059.32.028.51.26.569 0 .102-.058.251-.174.448-.116.197-.167.354-.152.47 0 .088.014.205.043.35zM41.5 18c1.693 0 3.311.33 4.855.99 1.544.66 2.874 1.55 3.99 2.665 1.116 1.116 2.004 2.446 2.664 3.99.66 1.544.991 3.162.991 4.855 0 1.693-.33 3.311-.99 4.855-.66 1.544-1.55 2.874-2.665 3.99-1.116 1.116-2.446 2.004-3.99 2.664A12.22 12.22 0 0 1 41.5 43a12.22 12.22 0 0 1-4.855-.99c-1.544-.66-2.874-1.55-3.99-2.665-1.116-1.116-2.004-2.446-2.664-3.99A12.22 12.22 0 0 1 29 30.5c0-1.693.33-3.311.99-4.855.66-1.544 1.55-2.874 2.665-3.99 1.116-1.116 2.446-2.004 3.99-2.664A12.22 12.22 0 0 1 41.5 18zm0 2c-1.93 0-3.763.423-5.5 1.268L38.956 24a8.405 8.405 0 0 1 5.088 0L47 21.268A12.413 12.413 0 0 0 41.5 20zm-9.232 15L35 32.313A7.005 7.005 0 0 1 34.606 30c0-.785.131-1.556.394-2.313L32.268 25A10.447 10.447 0 0 0 31 30c0 1.754.423 3.421 1.268 5zm9.232 6c1.93 0 3.763-.423 5.5-1.268L44.044 37a8.405 8.405 0 0 1-5.088 0L36 39.732A12.413 12.413 0 0 0 41.5 41zm0-5c1.518 0 2.814-.537 3.889-1.611C46.463 33.314 47 32.019 47 30.5c0-1.518-.537-2.814-1.611-3.889C44.314 25.537 43.019 25 41.5 25c-1.518 0-2.814.537-3.889 1.611C36.537 27.686 36 28.981 36 30.5c0 1.518.537 2.814 1.611 3.889C38.686 35.463 39.981 36 41.5 36zm6.5-3.687L50.732 35A10.447 10.447 0 0 0 52 30c0-1.754-.423-3.421-1.268-5L48 27.687a7.005 7.005 0 0 1 0 4.626z" opacity=".3"/><path fill="#FFF" d="M48.144 41.694c-.277.66-.599 1.307-.966 1.94a16.68 16.68 0 0 1-6.081 6.113C38.537 51.249 35.74 52 32.71 52c-3.032 0-5.828-.751-8.388-2.253a16.68 16.68 0 0 1-6.081-6.114C16.747 41.06 16 38.25 16 35.201s.747-5.859 2.241-8.433a16.68 16.68 0 0 1 6.081-6.113 16.14 16.14 0 0 1 6.704-2.174 14.534 14.534 0 0 0-3.957 5.522 1.13 1.13 0 0 1-.137-.008.404.404 0 0 1-.294-.175c-.058-.116-.058-.262 0-.437.015-.058.044-.073.087-.044a3.265 3.265 0 0 1-.24-.208 2.126 2.126 0 0 0-.217-.186c-.667.22-1.349.518-2.045.897a.533.533 0 0 0 .261-.022c.073-.029.167-.076.283-.142.116-.065.189-.106.218-.12.493-.204.797-.255.913-.153l.11-.11c.202.234.347.416.434.547-.101-.058-.319-.065-.652-.022-.29.088-.45.175-.48.263.102.175.139.306.11.394a3.403 3.403 0 0 1-.25-.22 1.726 1.726 0 0 0-.316-.24.865.865 0 0 0-.326-.11c-.232 0-.392.008-.479.023a13.76 13.76 0 0 0-5.113 4.856c.102.102.189.16.261.175.058.014.094.08.109.197a.842.842 0 0 0 .054.24c.022.044.105.022.25-.065.131.116.153.255.066.415.014-.014.333.182.957.59.276.249.428.402.457.46.044.16-.029.292-.218.394a1.116 1.116 0 0 0-.195-.197c-.116-.102-.182-.131-.196-.087-.044.072-.04.207.01.404.051.197.128.288.23.274-.102 0-.171.116-.208.35a5.08 5.08 0 0 0-.054.776c0 .284-.007.456-.022.514l.044.022c-.044.175-.004.427.12.755.123.328.279.47.467.426-.188.044-.043.358.435.94.087.117.145.183.174.198.044.029.131.084.262.164.13.08.239.153.326.218a.93.93 0 0 1 .217.23c.058.073.131.237.218.492s.189.427.305.514c-.03.088.04.234.206.438.167.204.243.372.229.503a.105.105 0 0 0-.055.022.105.105 0 0 1-.054.022c.044.102.156.204.337.306.182.102.294.197.337.284.015.044.03.117.044.219a.808.808 0 0 0 .065.24c.03.059.087.074.174.044.03-.291-.145-.743-.522-1.356-.217-.364-.34-.576-.37-.634a1.262 1.262 0 0 1-.12-.34 1.674 1.674 0 0 0-.097-.316c.029 0 .072.01.13.032.058.022.12.048.185.077.065.03.12.058.163.087.044.03.058.052.044.066-.044.102-.03.23.043.383s.16.288.261.405a29.946 29.946 0 0 0 .631.7c.087.087.189.23.305.426.116.197.116.295 0 .295.13 0 .276.073.435.22.16.145.283.29.37.437.073.116.13.306.174.568.044.263.08.438.109.525.029.102.09.2.185.296.094.094.185.164.272.207l.348.175.283.153c.072.03.206.106.402.23.196.124.352.208.468.252a.999.999 0 0 0 .348.087c.087 0 .192-.018.316-.054.123-.037.22-.062.293-.077.218-.03.428.08.631.328s.356.401.457.46c.522.276.921.357 1.197.24-.03.015-.026.07.01.164.037.095.095.208.175.34a21.465 21.465 0 0 0 .315.502c.073.088.203.197.392.328.188.132.319.241.392.328.087-.058.137-.124.152-.196-.044.116.007.262.152.437s.276.248.392.219c.203-.044.304-.277.304-.7-.45.219-.805.087-1.066-.394a.428.428 0 0 0-.054-.12 1.397 1.397 0 0 1-.142-.372.312.312 0 0 1 0-.164c.015-.044.051-.066.11-.066.13 0 .202-.025.217-.076.014-.051 0-.142-.044-.274a4.428 4.428 0 0 1-.087-.284c-.014-.117-.094-.263-.24-.438a5.824 5.824 0 0 1-.26-.328c-.073.132-.189.19-.348.175-.16-.014-.276-.08-.348-.197 0 .015-.011.055-.033.12a.523.523 0 0 0-.033.143c-.188 0-.297-.007-.326-.022.014-.044.033-.171.054-.383.022-.211.048-.375.077-.492.014-.058.054-.146.12-.262a4.525 4.525 0 0 0 .186-.373 14.219 14.219 0 0 0 9.067 3.254c2.867 0 5.539-.848 7.78-2.31zm-19.831-4.297a14.54 14.54 0 0 0 2.446 2.889c-.21.046-.358.187-.444.421-.014.044-.036.12-.065.23a.743.743 0 0 1-.109.251.542.542 0 0 1-.196.153c-.101.044-.275.059-.522.044-.247-.014-.42-.05-.522-.11-.189-.116-.352-.327-.49-.634-.138-.306-.206-.576-.206-.809 0-.146.018-.339.054-.58.036-.24.058-.422.065-.546.005-.083-.035-.262-.12-.536l.109-.773zm4.83 11.584c1.932-.339 3.68-1.035 5.242-2.088l-3.642-3.675a1.04 1.04 0 0 0-.185.164 1.088 1.088 0 0 0-.13.262c-.044.117-.08.197-.11.24-.029-.058-.112-.105-.25-.141-.138-.037-.207-.077-.207-.12.03.145.058.4.087.765.03.364.066.642.11.831.1.452.014.802-.262 1.05-.391.365-.602.656-.63.875-.059.32.028.51.26.569 0 .102-.058.251-.174.448-.116.197-.167.354-.152.47 0 .088.014.205.043.35zM41.5 16c1.693 0 3.311.33 4.855.99 1.544.66 2.874 1.55 3.99 2.665 1.116 1.116 2.004 2.446 2.664 3.99.66 1.544.991 3.162.991 4.855 0 1.693-.33 3.311-.99 4.855-.66 1.544-1.55 2.874-2.665 3.99-1.116 1.116-2.446 2.004-3.99 2.664A12.22 12.22 0 0 1 41.5 41a12.22 12.22 0 0 1-4.855-.99c-1.544-.66-2.874-1.55-3.99-2.665-1.116-1.116-2.004-2.446-2.664-3.99A12.22 12.22 0 0 1 29 28.5c0-1.693.33-3.311.99-4.855.66-1.544 1.55-2.874 2.665-3.99 1.116-1.116 2.446-2.004 3.99-2.664A12.22 12.22 0 0 1 41.5 16zm0 2c-1.93 0-3.763.423-5.5 1.268L38.956 22a8.405 8.405 0 0 1 5.088 0L47 19.268A12.413 12.413 0 0 0 41.5 18zm-9.232 15L35 30.313A7.005 7.005 0 0 1 34.606 28c0-.785.131-1.556.394-2.313L32.268 23A10.447 10.447 0 0 0 31 28c0 1.754.423 3.421 1.268 5zm9.232 6c1.93 0 3.763-.423 5.5-1.268L44.044 35a8.405 8.405 0 0 1-5.088 0L36 37.732A12.413 12.413 0 0 0 41.5 39zm0-5c1.518 0 2.814-.537 3.889-1.611C46.463 31.314 47 30.019 47 28.5c0-1.518-.537-2.814-1.611-3.889C44.314 23.537 43.019 23 41.5 23c-1.518 0-2.814.537-3.889 1.611C36.537 25.686 36 26.981 36 28.5c0 1.518.537 2.814 1.611 3.889C38.686 33.463 39.981 34 41.5 34zm6.5-3.687L50.732 33A10.447 10.447 0 0 0 52 28c0-1.754-.423-3.421-1.268-5L48 25.687a7.005 7.005 0 0 1 0 4.626z"/></g></g></svg>