<svg xmlns="http://www.w3.org/2000/svg" xmlns:xlink="http://www.w3.org/1999/xlink" width="70" height="70"><defs><path id="a" d="M4 0h61c4 0 5 1 5 5v60c0 4-1 5-5 5H4c-3 0-4-1-4-5V5c0-4 1-5 4-5z"/><linearGradient id="c" x1="100%" x2="0%" y1="0%" y2="100%"><stop offset="0%" stop-color="#CDC484"/><stop offset="100%" stop-color="#B5AA59"/></linearGradient></defs><g fill="none" fill-rule="evenodd"><mask id="b" fill="#fff"><use xlink:href="#a"/></mask><g mask="url(#b)"><path fill="url(#c)" d="M0 0H70V70H0z"/><path fill="#FFF" fill-opacity=".383" d="M4 1h61c2.667 0 4.333.667 5 2V0H0v3c.667-1.333 2-2 4-2z"/><path fill="#393939" d="M4 69c-2 0-4-1-4-4V36.142L9.53 26h7.507l10.22 5.744L33 26l2.578 6.211L43 26l3.959 5L53 26h7l-6 11 7 3-26.25 29H4z" opacity=".324"/><path fill="#000" fill-opacity=".383" d="M4 69h61c2.667 0 4.333-1 5-3v4H0v-4c.667 2 2 3 4 3z"/><path fill="#000" fill-rule="nonzero" d="M50 28c-.116.196-.238.432-.36.622-1.422 2.433-2.884 4.825-4.306 7.257-.035.04-.035.08-.116.08-5.687 0-11.415.041-17.102.041H28c.081-.115.116-.236.197-.352 1.503-2.507 3-5.06 4.504-7.608l.04-.04h7.069c-.041 0-.041.04-.041.04-.83 1.378-1.62 2.75-2.449 4.121-.081.116-.157.277-.238.392h3.082c.04 0 .08 0 .08-.04.912-1.493 1.777-3.06 2.688-4.513H50zm-29.293 4.154c-4.526 0-9.051 0-13.588.047H7c.083-.117.16-.28.243-.396.725-1.228 1.491-2.496 2.222-3.724 0-.04.041 0 .041-.081h14.912c.119 0 .244.04.362.04.891.158 1.699.513 2.305 1.228.807.949 1.092 2.02.807 3.288-.035.273-.16.512-.32.75-.523.873-1.051 1.74-1.574 2.613-.036.04-.036.081-.119.081h-5.618c-.16 0-.285-.04-.445-.081-.202-.041-.285-.198-.202-.437.035-.081.077-.157.119-.238.445-.71.89-1.467 1.336-2.217.083-.157.16-.28.202-.436.083-.198 0-.355-.202-.396-.119-.04-.244-.04-.362-.04zM48 36a.937.937 0 0 1 .21-.317c1.595-2.505 3.185-5.057 4.78-7.602 0-.04.044 0 .044-.081H61c-.419.628-.838 1.29-1.257 1.958-1.257 1.964-2.477 3.963-3.734 5.921-.036.04-.08.08-.123.08-2.6 0-5.2.041-7.8.041H48zm-23 1.076s0 .043 0 0c-.157.337-.356.636-.519.93-.676 1.017-1.468 1.91-2.418 2.633-.915.68-1.865 1.105-2.938 1.274a6.981 6.981 0 0 1-.95.087H6c.117-.212.198-.38.315-.593 1.55-2.802 3.054-5.567 4.575-8.32.04-.043.076-.087.157-.087h6.423c.198.044.28.212.198.424-.04.169-.116.344-.198.469-.437.805-.833 1.572-1.27 2.334-.041.125-.117.3-.158.424-.082.125 0 .294.117.337.116.044.239.044.355.088H25zM63.878 37H64c-.164.26-.335.519-.457.778-.742 1.374-1.534 2.754-2.32 4.133-.036.045-.036.089-.121.089H49.126c-.664 0-1.285-.082-1.906-.386-.377-.215-.706-.475-.956-.86-.328-.564-.328-1.165-.121-1.811.042-.17.121-.348.207-.475.25-.474.499-.905.749-1.38.036-.044.036-.088.121-.088h16.658zm-36.046 0c2.391 0 4.735 0 7.085.044H35c-.083.127-.16.304-.244.43-.809 1.463-1.66 2.975-2.469 4.437-.035.089-.077.089-.119.089H25c0-.089.042-.044.042-.089a550.648 550.648 0 0 1 2.67-4.822c.036-.089.078-.089.12-.089zm9.988 0c2.375 0 4.716 0 7.097.006H45a3.16 3.16 0 0 0-.201.342 248.143 248.143 0 0 1-2.5 4.563c-.036.089-.077.089-.119.089H35c0-.089.041-.044.041-.089a551.33 551.33 0 0 1 2.66-4.822c.036-.045.077-.089.119-.089zM7.808 46.508H6.524v-.792h3.51v.792H8.75V50h-.942v-3.492zm2.718-.792h1.326l1.002 2.946h.012l.948-2.946h1.326V50h-.882v-3.036h-.012L13.196 50h-.726l-1.05-3.006h-.012V50h-.882v-4.284z" opacity=".3"/><path fill="#FFF" fill-rule="nonzero" d="M50 26c-.116.196-.238.432-.36.622-1.422 2.433-2.884 4.825-4.306 7.257-.035.04-.035.08-.116.08-5.687 0-11.415.041-17.102.041H28c.081-.115.116-.236.197-.352 1.503-2.507 3-5.06 4.504-7.608l.04-.04h7.069c-.041 0-.041.04-.041.04-.83 1.378-1.62 2.75-2.449 4.121-.081.116-.157.277-.238.392h3.082c.04 0 .08 0 .08-.04.912-1.493 1.777-3.06 2.688-4.513H50zm-29.293 4.154c-4.526 0-9.051 0-13.588.047H7c.083-.117.16-.28.243-.396.725-1.228 1.491-2.496 2.222-3.724 0-.04.041 0 .041-.081h14.912c.119 0 .244.04.362.04.891.158 1.699.513 2.305 1.228.807.949 1.092 2.02.807 3.288-.035.273-.16.512-.32.75-.523.873-1.051 1.74-1.574 2.613-.036.04-.036.081-.119.081h-5.618c-.16 0-.285-.04-.445-.081-.202-.041-.285-.198-.202-.437.035-.081.077-.157.119-.238.445-.71.89-1.467 1.336-2.217.083-.157.16-.28.202-.436.083-.198 0-.355-.202-.396-.119-.04-.244-.04-.362-.04zM48 34a.937.937 0 0 1 .21-.317c1.595-2.505 3.185-5.057 4.78-7.602 0-.04.044 0 .044-.081H61c-.419.628-.838 1.29-1.257 1.958-1.257 1.964-2.477 3.963-3.734 5.921-.036.04-.08.08-.123.08-2.6 0-5.2.041-7.8.041H48zm-23 1.076s0 .043 0 0c-.157.337-.356.636-.519.93-.676 1.017-1.468 1.91-2.418 2.633-.915.68-1.865 1.105-2.938 1.274a6.981 6.981 0 0 1-.95.087H6c.117-.212.198-.38.315-.593 1.55-2.802 3.054-5.567 4.575-8.32.04-.043.076-.087.157-.087h6.423c.198.044.28.212.198.424-.04.169-.116.344-.198.469-.437.805-.833 1.572-1.27 2.334-.041.125-.117.3-.158.424-.082.125 0 .294.117.337.116.044.239.044.355.088H25zM63.878 35H64c-.164.26-.335.519-.457.778-.742 1.374-1.534 2.754-2.32 4.133-.036.045-.036.089-.121.089H49.126c-.664 0-1.285-.082-1.906-.386-.377-.215-.706-.475-.956-.86-.328-.564-.328-1.165-.121-1.811.042-.17.121-.348.207-.475.25-.474.499-.905.749-1.38.036-.044.036-.088.121-.088h16.658zm-36.046 0c2.391 0 4.735 0 7.085.044H35c-.083.127-.16.304-.244.43-.809 1.463-1.66 2.975-2.469 4.437-.035.089-.077.089-.119.089H25c0-.089.042-.044.042-.089a550.648 550.648 0 0 1 2.67-4.822c.036-.089.078-.089.12-.089zm9.988 0c2.375 0 4.716 0 7.097.006H45a3.16 3.16 0 0 0-.201.342 248.143 248.143 0 0 1-2.5 4.563c-.036.089-.077.089-.119.089H35c0-.089.041-.044.041-.089a551.33 551.33 0 0 1 2.66-4.822c.036-.045.077-.089.119-.089zM7.808 44.508H6.524v-.792h3.51v.792H8.75V48h-.942v-3.492zm2.718-.792h1.326l1.002 2.946h.012l.948-2.946h1.326V48h-.882v-3.036h-.012L13.196 48h-.726l-1.05-3.006h-.012V48h-.882v-4.284z"/></g></g></svg>