<svg xmlns="http://www.w3.org/2000/svg" xmlns:xlink="http://www.w3.org/1999/xlink" width="70" height="70"><defs><path id="a" d="M4 0h61c4 0 5 1 5 5v60c0 4-1 5-5 5H4c-3 0-4-1-4-5V5c0-4 1-5 4-5z"/><linearGradient id="c" x1="100%" x2="0%" y1="0%" y2="100%"><stop offset="0%" stop-color="#CD7690"/><stop offset="100%" stop-color="#CA5377"/></linearGradient></defs><g fill="none" fill-rule="evenodd"><mask id="b" fill="#fff"><use xlink:href="#a"/></mask><g mask="url(#b)"><path fill="url(#c)" d="M0 0H70V70H0z"/><path fill="#FFF" fill-opacity=".383" d="M4 1h61c2.667 0 4.333.667 5 2V0H0v3c.667-1.333 2-2 4-2z"/><path fill="#393939" d="M41.118 69H4c-2 0-4-1-4-4V36.484L8 28.5l8.25 1.257L41.5 11.5c7.824 1 21.81 14.536 21.6 20.875L41.118 69z" opacity=".324"/><path fill="#000" fill-opacity=".383" d="M4 69h61c2.667 0 4.333-1 5-3v4H0v-4c.667 2 2 3 4 3z"/><path fill="#000" fill-rule="nonzero" d="M43.5 29H8.3C7 29 6 30 6 31.3v14.6c0 1.3 1 2.3 2.3 2.3h35.3c1.3 0 2.3-1 2.3-2.3V31.3c-.1-1.3-1.1-2.3-2.4-2.3zm-6.7 5c-.8 0-1.4-.6-1.4-1.4 0-.8.6-1.4 1.4-1.4.8 0 1.4.6 1.4 1.4 0 .8-.6 1.4-1.4 1.4zm4.9 0c-.8 0-1.4-.6-1.4-1.4 0-.8.6-1.4 1.4-1.4.8 0 1.4.6 1.4 1.4 0 .8-.7 1.4-1.4 1.4z" opacity=".32"/><path fill="#000" d="M41.3 12c-.3 0-.6.1-.9.3-.3.2-.4.5-.4.9v1.6c0 .6.5 1.1 1.1 1.2 9.1.5 16.4 7.8 17 17 0 .6.6 1.1 1.2 1.1h1.6c.3 0 .6-.1.9-.4.2-.2.3-.5.3-.9-.6-11.2-9.6-20.2-20.8-20.8z" opacity=".32"/><path fill="#000" d="M41.3 19c-.3 0-.6.1-.9.3-.3.2-.4.5-.4.9v1.6c0 .6.5 1.1 1.1 1.2 5.3.5 9.6 4.8 10.1 10.1.1.6.6 1.1 1.2 1.1H54c.3 0 .6-.1.9-.4.2-.3.3-.6.3-.9-.7-7.4-6.6-13.3-13.9-13.9z" opacity=".32"/><path fill="#FFF" fill-rule="nonzero" d="M44.5 28H9.3C8 28 7 29 7 30.3v14.6c0 1.3 1 2.3 2.3 2.3h35.3c1.3 0 2.3-1 2.3-2.3V30.3c-.1-1.3-1.1-2.3-2.4-2.3zm-6.7 5c-.8 0-1.4-.6-1.4-1.4 0-.8.6-1.4 1.4-1.4.8 0 1.4.6 1.4 1.4 0 .8-.6 1.4-1.4 1.4zm4.9 0c-.8 0-1.4-.6-1.4-1.4 0-.8.6-1.4 1.4-1.4.8 0 1.4.6 1.4 1.4 0 .8-.7 1.4-1.4 1.4z"/><path fill="#FFF" d="M42.3 11c-.3 0-.6.1-.9.3-.3.2-.4.5-.4.9v1.6c0 .6.5 1.1 1.1 1.2 9.1.5 16.4 7.8 17 17 0 .6.6 1.1 1.2 1.1h1.6c.3 0 .6-.1.9-.4.2-.2.3-.5.3-.9-.6-11.2-9.6-20.2-20.8-20.8z"/><path fill="#FFF" d="M42.3 18c-.3 0-.6.1-.9.3-.3.2-.4.5-.4.9v1.6c0 .6.5 1.1 1.1 1.2 5.3.5 9.6 4.8 10.1 10.1.1.6.6 1.1 1.2 1.1H55c.3 0 .6-.1.9-.4.2-.3.3-.6.3-.9-.7-7.4-6.6-13.3-13.9-13.9z"/></g></g></svg>